<?xml version="1.0" encoding="utf-8"?>
<!-- Generator: Adobe Illustrator 16.0.4, SVG Export Plug-In . SVG Version: 6.00 Build 0)  -->
<!DOCTYPE svg PUBLIC "-//W3C//DTD SVG 1.1//EN" "http://www.w3.org/Graphics/SVG/1.1/DTD/svg11.dtd">
<svg version="1.1" id="Warstwa_1" xmlns="http://www.w3.org/2000/svg" xmlns:xlink="http://www.w3.org/1999/xlink" x="0px" y="0px"
	 width="291.167px" height="165.333px" viewBox="0 0 291.167 165.333" enable-background="new 0 0 291.167 165.333"
	 xml:space="preserve">
<line fill="none" stroke="#000000" stroke-miterlimit="10" x1="15.236" y1="112.334" x2="15.236" y2="128.334"/>
<g>
	<g>
		<line fill="none" stroke="#000000" stroke-miterlimit="10" x1="16.322" y1="120.333" x2="67.406" y2="120.336"/>
		<g>
			<polygon points="19.634,124.422 20.317,123.69 16.703,120.333 20.317,116.977 19.635,116.243 15.237,120.333 			"/>
		</g>
		<g>
			<polygon points="64.091,124.426 63.409,123.694 67.021,120.338 63.409,116.981 64.092,116.249 68.488,120.338 			"/>
		</g>
	</g>
</g>
<line fill="none" stroke="#000000" stroke-miterlimit="10" x1="68.488" y1="112.336" x2="68.488" y2="128.336"/>
<line fill="none" stroke="#000000" stroke-miterlimit="10" x1="102.983" y1="112.34" x2="102.983" y2="128.34"/>
<line fill="none" stroke="#000000" stroke-miterlimit="10" x1="15.236" y1="10.336" x2="15.236" y2="95.668"/>
<line fill="none" stroke="#000000" stroke-miterlimit="10" x1="102.597" y1="10.347" x2="102.597" y2="95.678"/>
<line fill="none" stroke="#000000" stroke-miterlimit="10" x1="15.236" y1="95.668" x2="68.495" y2="95.674"/>
<line fill="none" stroke="#000000" stroke-miterlimit="10" x1="68.493" y1="95.674" x2="68.493" y2="10.342"/>
<line fill="none" stroke="#000000" stroke-miterlimit="10" x1="68.488" y1="10.342" x2="102.597" y2="10.342"/>
<g enable-background="new    ">
	<path d="M32.329,129.974c0.369,0.486,0.554,0.987,0.554,1.503H31.84c-0.062-0.332-0.162-0.592-0.299-0.779
		c-0.254-0.352-0.639-0.527-1.154-0.527c-0.59,0-1.059,0.272-1.406,0.817s-0.541,1.325-0.58,2.341
		c0.242-0.355,0.547-0.621,0.914-0.797c0.336-0.156,0.711-0.234,1.125-0.234c0.703,0,1.316,0.225,1.84,0.674s0.785,1.119,0.785,2.01
		c0,0.762-0.248,1.437-0.744,2.024s-1.203,0.882-2.121,0.882c-0.785,0-1.463-0.298-2.033-0.894s-0.855-1.599-0.855-3.009
		c0-1.043,0.127-1.928,0.381-2.654c0.488-1.391,1.381-2.086,2.678-2.086C31.307,129.245,31.96,129.488,32.329,129.974z
		 M31.538,136.39c0.275-0.373,0.413-0.813,0.413-1.321c0-0.43-0.123-0.839-0.369-1.228s-0.693-0.583-1.342-0.583
		c-0.453,0-0.851,0.15-1.192,0.451s-0.513,0.754-0.513,1.359c0,0.531,0.155,0.978,0.466,1.339s0.741,0.542,1.292,0.542
		C30.848,136.95,31.263,136.763,31.538,136.39z"/>
	<path d="M35.016,135.532c0.07,0.602,0.35,1.018,0.838,1.248c0.25,0.117,0.539,0.176,0.867,0.176c0.625,0,1.088-0.199,1.389-0.598
		s0.451-0.84,0.451-1.324c0-0.586-0.179-1.039-0.536-1.359s-0.786-0.48-1.286-0.48c-0.363,0-0.675,0.07-0.935,0.211
		s-0.481,0.336-0.665,0.586l-0.914-0.053l0.639-4.518h4.359v1.02h-3.568l-0.357,2.332c0.195-0.148,0.381-0.26,0.557-0.334
		c0.312-0.129,0.674-0.193,1.084-0.193c0.77,0,1.422,0.248,1.957,0.744s0.803,1.125,0.803,1.887c0,0.793-0.245,1.492-0.735,2.098
		s-1.272,0.908-2.347,0.908c-0.684,0-1.288-0.192-1.813-0.577s-0.819-0.976-0.882-1.772H35.016z"/>
	<path d="M44.619,131.43h1.084v3.674c-0.008,0.543,0.1,0.967,0.322,1.271c0.215,0.32,0.607,0.48,1.178,0.48
		c0.582,0,0.98-0.164,1.195-0.492c0.211-0.305,0.316-0.725,0.316-1.26v-3.674h1.078v4.729c-0.023,0.465,0.109,0.697,0.398,0.697
		c0.109,0,0.221-0.012,0.334-0.035v0.85c-0.105,0.07-0.326,0.109-0.662,0.117c-0.328-0.023-0.564-0.102-0.709-0.234
		c-0.152-0.129-0.271-0.33-0.357-0.604c-0.375,0.543-0.898,0.822-1.57,0.838c-0.578,0-1.078-0.264-1.5-0.791h-0.023v3.023h-1.084
		V131.43z"/>
	<path d="M52.271,135.702c0.032,0.352,0.122,0.621,0.269,0.809c0.271,0.34,0.742,0.51,1.412,0.51c0.398,0,0.749-0.085,1.052-0.255
		s0.455-0.433,0.455-0.788c0-0.27-0.121-0.475-0.363-0.615c-0.155-0.086-0.46-0.186-0.917-0.299l-0.852-0.211
		c-0.544-0.133-0.945-0.281-1.203-0.445c-0.46-0.285-0.691-0.68-0.691-1.184c0-0.594,0.217-1.074,0.65-1.441
		c0.433-0.367,1.016-0.551,1.749-0.551c0.958,0,1.649,0.277,2.072,0.832c0.265,0.352,0.394,0.73,0.386,1.137h-0.996
		c-0.02-0.237-0.106-0.452-0.258-0.646c-0.248-0.276-0.678-0.414-1.29-0.414c-0.408,0-0.717,0.076-0.927,0.228
		c-0.21,0.152-0.315,0.353-0.315,0.602c0,0.272,0.138,0.49,0.414,0.654c0.159,0.097,0.394,0.183,0.704,0.257l0.71,0.17
		c0.772,0.184,1.29,0.361,1.552,0.533c0.41,0.27,0.615,0.693,0.615,1.271c0,0.559-0.215,1.041-0.644,1.447
		c-0.429,0.406-1.083,0.609-1.961,0.609c-0.945,0-1.614-0.212-2.008-0.636s-0.604-0.948-0.632-1.573H52.271z"/>
</g>
<g enable-background="new    ">
	<path d="M71.495,137.089c-0.447-0.545-0.671-1.208-0.671-1.989h1.102c0.047,0.543,0.148,0.938,0.305,1.184
		c0.273,0.441,0.768,0.662,1.482,0.662c0.555,0,1-0.148,1.336-0.445s0.504-0.68,0.504-1.148c0-0.578-0.177-0.982-0.53-1.213
		s-0.845-0.346-1.474-0.346c-0.07,0-0.142,0.001-0.214,0.003s-0.146,0.005-0.22,0.009v-0.932c0.109,0.012,0.201,0.02,0.275,0.023
		s0.154,0.006,0.24,0.006c0.395,0,0.719-0.062,0.973-0.188c0.445-0.219,0.668-0.609,0.668-1.172c0-0.418-0.148-0.74-0.445-0.967
		s-0.643-0.34-1.037-0.34c-0.703,0-1.189,0.234-1.459,0.703c-0.148,0.258-0.232,0.625-0.252,1.102h-1.043
		c0-0.625,0.125-1.156,0.375-1.594c0.43-0.781,1.186-1.172,2.268-1.172c0.855,0,1.518,0.19,1.986,0.571s0.703,0.933,0.703,1.655
		c0,0.516-0.139,0.934-0.416,1.254c-0.172,0.199-0.395,0.355-0.668,0.469c0.441,0.121,0.786,0.354,1.034,0.7
		s0.372,0.769,0.372,1.269c0,0.801-0.264,1.453-0.791,1.957s-1.275,0.756-2.244,0.756C72.662,137.907,71.942,137.634,71.495,137.089
		z"/>
	<path d="M78.693,135.54c0.07,0.602,0.35,1.018,0.838,1.248c0.25,0.117,0.539,0.176,0.867,0.176c0.625,0,1.088-0.199,1.389-0.598
		s0.451-0.84,0.451-1.324c0-0.586-0.179-1.039-0.536-1.359s-0.786-0.48-1.286-0.48c-0.363,0-0.675,0.07-0.935,0.211
		s-0.481,0.336-0.665,0.586l-0.914-0.053l0.639-4.518H82.9v1.02h-3.568l-0.357,2.332c0.195-0.148,0.381-0.26,0.557-0.334
		c0.312-0.129,0.674-0.193,1.084-0.193c0.77,0,1.422,0.248,1.957,0.744s0.803,1.125,0.803,1.887c0,0.793-0.245,1.492-0.735,2.098
		s-1.272,0.908-2.347,0.908c-0.684,0-1.288-0.192-1.813-0.577s-0.819-0.976-0.882-1.772H78.693z"/>
	<path d="M88.296,131.438h1.084v3.674c-0.008,0.543,0.1,0.967,0.322,1.271c0.215,0.32,0.607,0.48,1.178,0.48
		c0.582,0,0.98-0.164,1.195-0.492c0.211-0.305,0.316-0.725,0.316-1.26v-3.674h1.078v4.729c-0.023,0.465,0.109,0.697,0.398,0.697
		c0.109,0,0.221-0.012,0.334-0.035v0.85c-0.105,0.07-0.326,0.109-0.662,0.117c-0.328-0.023-0.564-0.102-0.709-0.234
		c-0.152-0.129-0.271-0.33-0.357-0.604c-0.375,0.543-0.898,0.822-1.57,0.838c-0.578,0-1.078-0.264-1.5-0.791H89.38v3.023h-1.084
		V131.438z"/>
	<path d="M95.949,135.709c0.032,0.352,0.122,0.621,0.269,0.809c0.271,0.34,0.742,0.51,1.412,0.51c0.398,0,0.749-0.085,1.052-0.255
		s0.455-0.433,0.455-0.788c0-0.27-0.121-0.475-0.363-0.615c-0.155-0.086-0.46-0.186-0.917-0.299l-0.852-0.211
		c-0.544-0.133-0.945-0.281-1.203-0.445c-0.46-0.285-0.691-0.68-0.691-1.184c0-0.594,0.217-1.074,0.65-1.441
		c0.433-0.367,1.016-0.551,1.749-0.551c0.958,0,1.649,0.277,2.072,0.832c0.265,0.352,0.394,0.73,0.386,1.137h-0.996
		c-0.02-0.237-0.106-0.452-0.258-0.646c-0.248-0.276-0.678-0.414-1.29-0.414c-0.408,0-0.717,0.076-0.927,0.228
		c-0.21,0.152-0.315,0.353-0.315,0.602c0,0.272,0.138,0.49,0.414,0.654c0.159,0.097,0.394,0.183,0.704,0.257l0.71,0.17
		c0.772,0.184,1.29,0.361,1.552,0.533c0.41,0.27,0.615,0.693,0.615,1.271c0,0.559-0.215,1.041-0.644,1.447
		c-0.429,0.406-1.083,0.609-1.961,0.609c-0.945,0-1.614-0.212-2.008-0.636s-0.604-0.948-0.632-1.573H95.949z"/>
</g>
<g>
	<g>
		<line fill="none" stroke="#000000" stroke-miterlimit="10" x1="69.58" y1="120.338" x2="101.902" y2="120.34"/>
		<g>
			<polygon points="72.893,124.428 73.575,123.696 69.962,120.338 73.575,116.983 72.894,116.249 68.495,120.338 			"/>
		</g>
		<g>
			<polygon points="98.587,124.43 97.905,123.698 101.516,120.342 97.905,116.985 98.588,116.252 102.983,120.342 			"/>
		</g>
	</g>
</g>
<g enable-background="new    ">
	<path d="M38.677,145.03h1.025v3.123c0.231-0.301,0.508-0.53,0.83-0.688c0.321-0.158,0.67-0.237,1.047-0.237
		c0.784,0,1.42,0.269,1.909,0.806s0.732,1.329,0.732,2.376c0,0.992-0.241,1.816-0.724,2.473s-1.151,0.984-2.006,0.984
		c-0.478,0-0.882-0.115-1.211-0.346c-0.196-0.137-0.406-0.355-0.629-0.656v0.803h-0.973V145.03z M42.71,152.254
		c0.284-0.453,0.426-1.051,0.426-1.793c0-0.66-0.142-1.207-0.426-1.641s-0.703-0.65-1.255-0.65c-0.482,0-0.904,0.178-1.267,0.533
		c-0.363,0.355-0.544,0.941-0.544,1.758c0,0.59,0.074,1.068,0.224,1.436c0.278,0.691,0.797,1.037,1.558,1.037
		C41.998,152.934,42.426,152.708,42.71,152.254z"/>
	<path d="M45.439,145.059h1.072v1.195h-1.072V145.059z M45.439,147.42h1.072v6.246h-1.072V147.42z"/>
	<path d="M48.316,145.639h1.066v1.752h1.002v0.861h-1.002v4.096c0,0.219,0.074,0.365,0.223,0.439
		c0.082,0.043,0.219,0.064,0.41,0.064c0.051,0,0.105-0.001,0.164-0.004s0.127-0.009,0.205-0.02v0.838
		c-0.121,0.035-0.247,0.061-0.378,0.076s-0.272,0.023-0.425,0.023c-0.492,0-0.826-0.126-1.002-0.378s-0.264-0.579-0.264-0.981
		v-4.154h-0.85v-0.861h0.85V145.639z"/>
	<path d="M56.027,145.528c-0.215,0.035-0.378,0.156-0.489,0.363s-0.167,0.447-0.167,0.721c0,0.023,0.001,0.046,0.003,0.067
		s0.007,0.046,0.015,0.073h0.639v1.277h-1.254v-1.178c0-0.465,0.098-0.88,0.293-1.245s0.516-0.575,0.961-0.63V145.528z"/>
	<path d="M56.97,152.834l3.727-4.5h-3.451v-0.943h4.869v0.861l-3.703,4.471h3.814v0.943H56.97V152.834z"/>
	<path d="M67.315,147.564c0.416,0.209,0.732,0.479,0.949,0.812c0.21,0.316,0.35,0.686,0.419,1.107
		c0.062,0.289,0.093,0.75,0.093,1.383h-4.564c0.02,0.639,0.168,1.15,0.448,1.536c0.279,0.386,0.711,0.579,1.296,0.579
		c0.546,0,0.982-0.183,1.308-0.548c0.182-0.211,0.311-0.457,0.387-0.735h1.037c-0.027,0.23-0.118,0.487-0.272,0.771
		s-0.327,0.515-0.517,0.694c-0.318,0.312-0.711,0.523-1.18,0.633c-0.252,0.062-0.537,0.094-0.855,0.094
		c-0.776,0-1.434-0.284-1.974-0.853c-0.54-0.568-0.81-1.364-0.81-2.388c0-1.008,0.271-1.826,0.815-2.455
		c0.543-0.629,1.254-0.943,2.131-0.943C66.471,147.25,66.9,147.355,67.315,147.564z M67.693,150.028
		c-0.042-0.457-0.142-0.822-0.296-1.096c-0.287-0.508-0.765-0.762-1.435-0.762c-0.48,0-0.883,0.175-1.208,0.524
		s-0.498,0.794-0.517,1.333H67.693z"/>
	<path d="M70.142,147.391h1.002v1.084c0.082-0.211,0.283-0.468,0.604-0.771s0.689-0.454,1.107-0.454c0.02,0,0.053,0.002,0.1,0.006
		s0.127,0.012,0.24,0.023v1.113c-0.062-0.012-0.12-0.02-0.173-0.023s-0.11-0.006-0.173-0.006c-0.531,0-0.939,0.171-1.225,0.513
		s-0.428,0.735-0.428,1.181v3.609h-1.055V147.391z"/>
	<path d="M78.656,148.017c0.555,0.539,0.832,1.331,0.832,2.377c0,1.011-0.245,1.847-0.733,2.506
		c-0.488,0.659-1.247,0.989-2.274,0.989c-0.857,0-1.538-0.292-2.042-0.875c-0.504-0.584-0.756-1.367-0.756-2.351
		c0-1.054,0.266-1.893,0.797-2.518c0.532-0.624,1.245-0.937,2.141-0.937C77.422,147.209,78.101,147.479,78.656,148.017z
		 M78.001,152.188c0.257-0.528,0.385-1.117,0.385-1.765c0-0.585-0.093-1.061-0.278-1.428c-0.293-0.577-0.799-0.866-1.518-0.866
		c-0.638,0-1.101,0.246-1.391,0.737c-0.29,0.492-0.435,1.085-0.435,1.779c0,0.667,0.145,1.223,0.435,1.668
		c0.29,0.444,0.749,0.667,1.379,0.667C77.27,152.981,77.744,152.716,78.001,152.188z"/>
	<path d="M81.005,147.561c0.217-0.035,0.381-0.156,0.494-0.363s0.168-0.445,0.168-0.715c0-0.027-0.001-0.052-0.003-0.073
		s-0.007-0.046-0.015-0.073h-0.645v-1.277h1.254v1.178c0,0.5-0.104,0.925-0.311,1.274s-0.521,0.55-0.943,0.601V147.561z"/>
</g>
<line fill="none" stroke="#000000" stroke-miterlimit="10" x1="278.984" y1="129" x2="278.984" y2="113"/>
<g>
	<g>
		<line fill="none" stroke="#000000" stroke-miterlimit="10" x1="226.813" y1="121" x2="277.898" y2="120.999"/>
		<g>
			<polygon points="278.983,120.999 274.583,116.909 273.903,117.642 277.516,120.999 273.903,124.355 274.585,125.086 			"/>
		</g>
		<g>
			<polygon points="225.732,121.002 230.126,116.915 230.81,117.646 227.198,121.002 230.81,124.359 230.128,125.09 			"/>
		</g>
	</g>
</g>
<line fill="none" stroke="#000000" stroke-miterlimit="10" x1="225.732" y1="129" x2="225.732" y2="113"/>
<line fill="none" stroke="#000000" stroke-miterlimit="10" x1="191.236" y1="129.004" x2="191.236" y2="113.004"/>
<line fill="none" stroke="#000000" stroke-miterlimit="10" x1="278.984" y1="96.342" x2="278.984" y2="11.011"/>
<line fill="none" stroke="#000000" stroke-miterlimit="10" x1="191.623" y1="96.333" x2="191.623" y2="11.001"/>
<line fill="none" stroke="#000000" stroke-miterlimit="10" x1="278.984" y1="11.011" x2="225.724" y2="11.005"/>
<line fill="none" stroke="#000000" stroke-miterlimit="10" x1="225.726" y1="11.005" x2="225.726" y2="96.338"/>
<line fill="none" stroke="#000000" stroke-miterlimit="10" x1="225.732" y1="96.338" x2="191.623" y2="96.336"/>
<g enable-background="new    ">
	<path d="M242.818,130.638c0.369,0.486,0.554,0.987,0.554,1.503h-1.043c-0.062-0.332-0.162-0.592-0.299-0.779
		c-0.254-0.352-0.639-0.527-1.154-0.527c-0.59,0-1.059,0.272-1.406,0.817s-0.541,1.325-0.58,2.341
		c0.242-0.355,0.547-0.621,0.914-0.797c0.336-0.156,0.711-0.234,1.125-0.234c0.703,0,1.316,0.225,1.84,0.674s0.785,1.119,0.785,2.01
		c0,0.762-0.248,1.437-0.744,2.024s-1.203,0.882-2.121,0.882c-0.785,0-1.463-0.298-2.033-0.894s-0.855-1.599-0.855-3.009
		c0-1.043,0.127-1.928,0.381-2.654c0.488-1.391,1.381-2.086,2.678-2.086C241.795,129.909,242.449,130.152,242.818,130.638z
		 M242.027,137.054c0.275-0.373,0.413-0.813,0.413-1.321c0-0.43-0.123-0.839-0.369-1.228s-0.693-0.583-1.342-0.583
		c-0.453,0-0.851,0.15-1.192,0.451s-0.513,0.754-0.513,1.359c0,0.531,0.155,0.978,0.466,1.339s0.741,0.542,1.292,0.542
		C241.336,137.614,241.751,137.427,242.027,137.054z"/>
	<path d="M245.504,136.196c0.07,0.602,0.35,1.018,0.838,1.248c0.25,0.117,0.539,0.176,0.867,0.176c0.625,0,1.088-0.199,1.389-0.598
		s0.451-0.84,0.451-1.324c0-0.586-0.179-1.039-0.536-1.359s-0.786-0.48-1.286-0.48c-0.363,0-0.675,0.07-0.935,0.211
		s-0.481,0.336-0.665,0.586l-0.914-0.053l0.64-4.518h4.358v1.02h-3.568l-0.357,2.332c0.195-0.148,0.381-0.26,0.557-0.334
		c0.312-0.129,0.674-0.193,1.084-0.193c0.77,0,1.422,0.248,1.957,0.744s0.803,1.125,0.803,1.887c0,0.793-0.245,1.492-0.735,2.098
		s-1.272,0.908-2.347,0.908c-0.684,0-1.288-0.192-1.813-0.577s-0.819-0.976-0.882-1.772H245.504z"/>
	<path d="M255.108,132.094h1.084v3.674c-0.008,0.543,0.1,0.967,0.322,1.271c0.215,0.32,0.607,0.48,1.178,0.48
		c0.582,0,0.98-0.164,1.195-0.492c0.211-0.305,0.316-0.725,0.316-1.26v-3.674h1.078v4.729c-0.023,0.465,0.109,0.697,0.398,0.697
		c0.109,0,0.221-0.012,0.334-0.035v0.85c-0.105,0.07-0.326,0.109-0.662,0.117c-0.328-0.023-0.564-0.102-0.709-0.234
		c-0.152-0.129-0.271-0.33-0.357-0.604c-0.375,0.543-0.898,0.822-1.57,0.838c-0.578,0-1.078-0.264-1.5-0.791h-0.023v3.023h-1.084
		V132.094z"/>
	<path d="M262.76,136.366c0.032,0.352,0.122,0.621,0.269,0.809c0.271,0.34,0.742,0.51,1.412,0.51c0.398,0,0.749-0.085,1.053-0.255
		c0.303-0.17,0.454-0.433,0.454-0.788c0-0.27-0.121-0.475-0.363-0.615c-0.155-0.086-0.46-0.186-0.917-0.299l-0.852-0.211
		c-0.544-0.133-0.945-0.281-1.203-0.445c-0.46-0.285-0.69-0.68-0.69-1.184c0-0.594,0.217-1.074,0.65-1.441
		c0.433-0.367,1.017-0.551,1.749-0.551c0.957,0,1.648,0.277,2.072,0.832c0.265,0.352,0.394,0.73,0.386,1.137h-0.996
		c-0.021-0.237-0.106-0.452-0.258-0.646c-0.248-0.276-0.678-0.414-1.29-0.414c-0.408,0-0.717,0.076-0.926,0.228
		c-0.211,0.152-0.315,0.353-0.315,0.602c0,0.272,0.138,0.49,0.414,0.654c0.159,0.097,0.394,0.183,0.704,0.257l0.711,0.17
		c0.771,0.184,1.289,0.361,1.552,0.533c0.41,0.27,0.615,0.693,0.615,1.271c0,0.559-0.215,1.041-0.644,1.447
		c-0.43,0.406-1.083,0.609-1.961,0.609c-0.945,0-1.614-0.212-2.008-0.636s-0.604-0.948-0.632-1.573H262.76z"/>
</g>
<g enable-background="new    ">
	<path d="M194.628,137.755c-0.447-0.545-0.67-1.208-0.67-1.989h1.102c0.047,0.543,0.148,0.938,0.305,1.184
		c0.273,0.441,0.768,0.662,1.482,0.662c0.555,0,1-0.148,1.336-0.445s0.504-0.68,0.504-1.148c0-0.578-0.178-0.982-0.531-1.213
		s-0.844-0.346-1.473-0.346c-0.07,0-0.143,0.001-0.215,0.003s-0.145,0.005-0.219,0.009v-0.932c0.109,0.012,0.201,0.02,0.275,0.023
		s0.154,0.006,0.24,0.006c0.395,0,0.719-0.062,0.973-0.188c0.445-0.219,0.668-0.609,0.668-1.172c0-0.418-0.148-0.74-0.445-0.967
		s-0.643-0.34-1.037-0.34c-0.703,0-1.189,0.234-1.459,0.703c-0.148,0.258-0.232,0.625-0.252,1.102h-1.043
		c0-0.625,0.125-1.156,0.375-1.594c0.43-0.781,1.186-1.172,2.268-1.172c0.855,0,1.518,0.19,1.986,0.571s0.703,0.933,0.703,1.655
		c0,0.516-0.139,0.934-0.416,1.254c-0.172,0.199-0.395,0.355-0.668,0.469c0.441,0.121,0.785,0.354,1.033,0.7
		s0.373,0.769,0.373,1.269c0,0.801-0.264,1.453-0.791,1.957s-1.275,0.756-2.244,0.756
		C195.796,138.573,195.076,138.3,194.628,137.755z"/>
	<path d="M201.828,136.206c0.07,0.602,0.35,1.018,0.838,1.248c0.25,0.117,0.539,0.176,0.867,0.176c0.625,0,1.088-0.199,1.389-0.598
		s0.451-0.84,0.451-1.324c0-0.586-0.18-1.039-0.537-1.359s-0.785-0.48-1.285-0.48c-0.363,0-0.676,0.07-0.936,0.211
		s-0.48,0.336-0.664,0.586l-0.914-0.053l0.639-4.518h4.359v1.02h-3.568l-0.357,2.332c0.195-0.148,0.381-0.26,0.557-0.334
		c0.312-0.129,0.674-0.193,1.084-0.193c0.77,0,1.422,0.248,1.957,0.744s0.803,1.125,0.803,1.887c0,0.793-0.246,1.492-0.736,2.098
		s-1.271,0.908-2.346,0.908c-0.684,0-1.289-0.192-1.814-0.577s-0.818-0.976-0.881-1.772H201.828z"/>
	<path d="M211.431,132.104h1.084v3.674c-0.008,0.543,0.1,0.967,0.322,1.271c0.215,0.32,0.607,0.48,1.178,0.48
		c0.582,0,0.98-0.164,1.195-0.492c0.211-0.305,0.316-0.725,0.316-1.26v-3.674h1.078v4.729c-0.023,0.465,0.109,0.697,0.398,0.697
		c0.109,0,0.221-0.012,0.334-0.035v0.85c-0.105,0.07-0.326,0.109-0.662,0.117c-0.328-0.023-0.564-0.102-0.709-0.234
		c-0.152-0.129-0.271-0.33-0.357-0.604c-0.375,0.543-0.898,0.822-1.57,0.838c-0.578,0-1.078-0.264-1.5-0.791h-0.023v3.023h-1.084
		V132.104z"/>
	<path d="M219.083,136.375c0.031,0.352,0.121,0.621,0.269,0.809c0.271,0.34,0.741,0.51,1.411,0.51c0.398,0,0.75-0.085,1.053-0.255
		s0.455-0.433,0.455-0.788c0-0.27-0.121-0.475-0.363-0.615c-0.155-0.086-0.461-0.186-0.918-0.299l-0.852-0.211
		c-0.543-0.133-0.944-0.281-1.202-0.445c-0.46-0.285-0.69-0.68-0.69-1.184c0-0.594,0.217-1.074,0.65-1.441
		c0.433-0.367,1.016-0.551,1.748-0.551c0.958,0,1.648,0.277,2.072,0.832c0.266,0.352,0.395,0.73,0.387,1.137h-0.996
		c-0.021-0.237-0.106-0.452-0.258-0.646c-0.248-0.276-0.678-0.414-1.29-0.414c-0.408,0-0.717,0.076-0.927,0.228
		c-0.21,0.152-0.314,0.353-0.314,0.602c0,0.272,0.137,0.49,0.414,0.654c0.158,0.097,0.393,0.183,0.703,0.257l0.711,0.17
		c0.771,0.184,1.289,0.361,1.553,0.533c0.41,0.27,0.615,0.693,0.615,1.271c0,0.559-0.215,1.041-0.645,1.447
		c-0.429,0.406-1.082,0.609-1.961,0.609c-0.944,0-1.613-0.212-2.008-0.636c-0.393-0.424-0.604-0.948-0.631-1.573H219.083z"/>
</g>
<g>
	<g>
		<line fill="none" stroke="#000000" stroke-miterlimit="10" x1="192.318" y1="121.004" x2="224.639" y2="121.002"/>
		<g>
			<polygon points="225.724,121.002 221.326,116.915 220.644,117.648 224.257,121.002 220.644,124.361 221.326,125.092 			"/>
		</g>
		<g>
			<polygon points="191.236,121.006 195.632,116.917 196.314,117.65 192.703,121.006 196.314,124.363 195.632,125.094 			"/>
		</g>
	</g>
</g>
<g enable-background="new    ">
	<path d="M216.338,145.695h1.025v3.123c0.231-0.301,0.508-0.53,0.829-0.688c0.322-0.158,0.671-0.237,1.047-0.237
		c0.785,0,1.421,0.269,1.909,0.806s0.732,1.329,0.732,2.376c0,0.992-0.241,1.816-0.724,2.473s-1.15,0.984-2.006,0.984
		c-0.479,0-0.882-0.115-1.211-0.346c-0.197-0.137-0.406-0.355-0.63-0.656v0.803h-0.973V145.695z M220.371,152.919
		c0.285-0.453,0.427-1.051,0.427-1.793c0-0.66-0.142-1.207-0.427-1.641c-0.283-0.434-0.702-0.65-1.255-0.65
		c-0.481,0-0.904,0.178-1.267,0.533c-0.363,0.355-0.544,0.941-0.544,1.758c0,0.59,0.074,1.068,0.224,1.436
		c0.277,0.691,0.797,1.037,1.558,1.037C219.659,153.599,220.087,153.373,220.371,152.919z"/>
	<path d="M223.1,145.724h1.072v1.195H223.1V145.724z M223.1,148.085h1.072v6.246H223.1V148.085z"/>
	<path d="M225.977,146.304h1.066v1.752h1.002v0.861h-1.002v4.096c0,0.219,0.074,0.365,0.223,0.439
		c0.082,0.043,0.219,0.064,0.41,0.064c0.051,0,0.105-0.001,0.164-0.004s0.127-0.009,0.205-0.02v0.838
		c-0.121,0.035-0.247,0.061-0.378,0.076s-0.272,0.023-0.425,0.023c-0.492,0-0.826-0.126-1.002-0.378s-0.264-0.579-0.264-0.981
		v-4.154h-0.85v-0.861h0.85V146.304z"/>
	<path d="M233.688,146.193c-0.215,0.035-0.378,0.156-0.489,0.363s-0.167,0.447-0.167,0.721c0,0.023,0.001,0.046,0.003,0.067
		s0.007,0.046,0.015,0.073h0.639v1.277h-1.254v-1.178c0-0.465,0.098-0.88,0.293-1.245s0.516-0.575,0.961-0.63V146.193z"/>
	<path d="M239.647,148.682c0.555,0.539,0.832,1.331,0.832,2.377c0,1.011-0.245,1.847-0.733,2.506s-1.246,0.989-2.274,0.989
		c-0.857,0-1.538-0.292-2.042-0.875c-0.505-0.584-0.757-1.367-0.757-2.351c0-1.054,0.266-1.893,0.797-2.518
		c0.532-0.624,1.245-0.937,2.142-0.937C238.414,147.875,239.092,148.144,239.647,148.682z M238.992,152.853
		c0.258-0.528,0.386-1.117,0.386-1.765c0-0.585-0.093-1.061-0.278-1.428c-0.293-0.577-0.799-0.866-1.518-0.866
		c-0.638,0-1.102,0.246-1.391,0.737c-0.289,0.492-0.435,1.085-0.435,1.779c0,0.667,0.146,1.223,0.435,1.668
		c0.289,0.444,0.749,0.667,1.379,0.667C238.261,153.646,238.736,153.381,238.992,152.853z"/>
	<path d="M241.774,148.056h1.002v0.891c0.297-0.367,0.611-0.631,0.943-0.791s0.701-0.24,1.107-0.24c0.891,0,1.492,0.311,1.805,0.932
		c0.172,0.34,0.258,0.826,0.258,1.459v4.025h-1.072v-3.955c0-0.383-0.057-0.691-0.17-0.926c-0.188-0.391-0.527-0.586-1.02-0.586
		c-0.25,0-0.455,0.025-0.615,0.076c-0.289,0.086-0.543,0.258-0.762,0.516c-0.176,0.207-0.29,0.421-0.343,0.642
		s-0.079,0.536-0.079,0.946v3.287h-1.055V148.056z"/>
	<path d="M252.324,148.229c0.416,0.209,0.732,0.479,0.949,0.812c0.21,0.316,0.35,0.686,0.42,1.107
		c0.062,0.289,0.093,0.75,0.093,1.383h-4.564c0.02,0.639,0.169,1.15,0.448,1.536c0.278,0.386,0.711,0.579,1.296,0.579
		c0.546,0,0.982-0.183,1.308-0.548c0.183-0.211,0.312-0.457,0.388-0.735h1.037c-0.027,0.23-0.118,0.487-0.272,0.771
		s-0.326,0.515-0.517,0.694c-0.317,0.312-0.712,0.523-1.181,0.633c-0.252,0.062-0.537,0.094-0.854,0.094
		c-0.776,0-1.435-0.284-1.974-0.853c-0.54-0.568-0.81-1.364-0.81-2.388c0-1.008,0.271-1.826,0.815-2.455
		c0.543-0.629,1.254-0.943,2.131-0.943C251.48,147.916,251.909,148.02,252.324,148.229z M252.702,150.693
		c-0.042-0.457-0.142-0.822-0.296-1.096c-0.287-0.508-0.766-0.762-1.436-0.762c-0.48,0-0.883,0.175-1.209,0.524
		c-0.324,0.35-0.497,0.794-0.517,1.333H252.702z"/>
	<path d="M255.344,148.226c0.217-0.035,0.382-0.156,0.493-0.363c0.113-0.207,0.169-0.445,0.169-0.715
		c0-0.027-0.001-0.052-0.003-0.073s-0.007-0.046-0.015-0.073h-0.645v-1.277h1.254v1.178c0,0.5-0.104,0.925-0.311,1.274
		s-0.521,0.55-0.943,0.601V148.226z"/>
</g>
</svg>
