<?xml version="1.0" encoding="utf-8"?>
<!-- Generator: Adobe Illustrator 16.0.4, SVG Export Plug-In . SVG Version: 6.00 Build 0)  -->
<!DOCTYPE svg PUBLIC "-//W3C//DTD SVG 1.1//EN" "http://www.w3.org/Graphics/SVG/1.1/DTD/svg11.dtd">
<svg version="1.1" id="Warstwa_1" xmlns="http://www.w3.org/2000/svg" xmlns:xlink="http://www.w3.org/1999/xlink" x="0px" y="0px"
	 width="530.666px" height="165.333px" viewBox="0 0 530.666 165.333" enable-background="new 0 0 530.666 165.333"
	 xml:space="preserve">
<line fill="none" stroke="#000000" stroke-miterlimit="10" x1="38.63" y1="10.329" x2="38.63" y2="95.663"/>
<line fill="none" stroke="#000000" stroke-miterlimit="10" x1="38.63" y1="95.663" x2="185.799" y2="95.663"/>
<line fill="none" stroke="#000000" stroke-miterlimit="10" x1="185.798" y1="95.663" x2="185.798" y2="10.33"/>
<line fill="none" stroke="#000000" stroke-miterlimit="10" x1="185.794" y1="10.33" x2="236.103" y2="10.331"/>
<line fill="none" stroke="#000000" stroke-miterlimit="10" x1="10.465" y1="10.329" x2="38.63" y2="10.329"/>
<line fill="none" stroke="#000000" stroke-miterlimit="10" x1="38.63" y1="112.329" x2="38.63" y2="128.329"/>
<g>
	<g>
		<line fill="none" stroke="#000000" stroke-miterlimit="10" x1="39.715" y1="120.329" x2="184.714" y2="120.331"/>
		<g>
			<polygon points="43.028,124.418 43.71,123.686 40.099,120.331 43.71,116.972 43.028,116.241 38.63,120.331 			"/>
		</g>
		<g>
			<polygon points="181.4,124.418 180.718,123.687 184.33,120.331 180.718,116.973 181.4,116.241 185.798,120.331 			"/>
		</g>
	</g>
</g>
<line fill="none" stroke="#000000" stroke-miterlimit="10" x1="185.798" y1="112.331" x2="185.798" y2="128.331"/>
<g>
	<g>
		<line fill="none" stroke="#000000" stroke-miterlimit="10" x1="186.878" y1="120.331" x2="235.019" y2="120.331"/>
		<g>
			<polygon points="190.192,124.42 190.874,123.688 187.262,120.331 190.874,116.974 190.192,116.241 185.794,120.331 			"/>
		</g>
		<g>
			<polygon points="231.705,124.42 231.023,123.688 234.634,120.333 231.023,116.974 231.706,116.243 236.103,120.333 			"/>
		</g>
	</g>
</g>
<line fill="none" stroke="#000000" stroke-miterlimit="10" x1="236.103" y1="112.331" x2="236.103" y2="128.331"/>
<g>
	<g>
		<line fill="none" stroke="#000000" stroke-miterlimit="10" x1="237.187" y1="120.329" x2="357.65" y2="120.331"/>
		<g>
			<polygon points="240.5,124.418 241.183,123.686 237.572,120.329 241.183,116.972 240.501,116.239 236.103,120.329 			"/>
		</g>
		<g>
			<polygon points="354.335,124.42 353.654,123.688 357.265,120.333 353.654,116.974 354.336,116.243 358.734,120.333 			"/>
		</g>
	</g>
</g>
<line fill="none" stroke="#000000" stroke-miterlimit="10" x1="358.734" y1="112.331" x2="358.734" y2="128.331"/>
<g>
	<g>
		<line fill="none" stroke="#000000" stroke-miterlimit="10" x1="359.82" y1="120.329" x2="426.25" y2="120.331"/>
		<g>
			<polygon points="363.132,124.418 363.815,123.686 360.201,120.329 363.815,116.972 363.133,116.239 358.735,120.329 			"/>
		</g>
		<g>
			<polygon points="422.935,124.42 422.253,123.688 425.865,120.333 422.253,116.974 422.936,116.243 427.331,120.333 			"/>
		</g>
	</g>
</g>
<line fill="none" stroke="#000000" stroke-miterlimit="10" x1="427.331" y1="112.331" x2="427.331" y2="128.331"/>
<g>
	<g>
		<line fill="none" stroke="#000000" stroke-miterlimit="10" x1="428.415" y1="120.329" x2="516.916" y2="120.325"/>
		<g>
			<polygon points="431.732,124.418 432.412,123.686 428.802,120.329 432.412,116.972 431.731,116.239 427.331,120.329 			"/>
		</g>
		<g>
			<polygon points="513.603,124.415 512.92,123.682 516.531,120.325 512.92,116.967 513.602,116.235 518,120.325 			"/>
		</g>
	</g>
</g>
<line fill="none" stroke="#000000" stroke-miterlimit="10" x1="518" y1="112.325" x2="518" y2="128.325"/>
<g enable-background="new    ">
	<path d="M95.013,132.755c-0.309-0.312-0.463-0.719-0.463-1.219c0-0.625,0.226-1.162,0.679-1.611s1.095-0.674,1.926-0.674
		c0.804,0,1.434,0.212,1.891,0.636c0.456,0.424,0.685,0.919,0.685,1.485c0,0.523-0.133,0.947-0.398,1.271
		c-0.148,0.184-0.379,0.363-0.691,0.539c0.349,0.16,0.624,0.344,0.824,0.551c0.372,0.391,0.559,0.898,0.559,1.523
		c0,0.738-0.248,1.364-0.744,1.878s-1.197,0.771-2.104,0.771c-0.816,0-1.507-0.222-2.071-0.665s-0.847-1.087-0.847-1.931
		c0-0.496,0.121-0.925,0.363-1.286s0.602-0.638,1.078-0.829C95.406,133.07,95.177,132.923,95.013,132.755z M98.415,136.549
		c0.322-0.264,0.483-0.657,0.483-1.181c0-0.543-0.166-0.955-0.498-1.236s-0.758-0.422-1.277-0.422c-0.504,0-0.915,0.144-1.233,0.431
		s-0.478,0.685-0.478,1.192c0,0.438,0.146,0.815,0.437,1.134s0.741,0.478,1.351,0.478C97.687,136.945,98.093,136.813,98.415,136.549
		z M98.219,132.4c0.261-0.26,0.392-0.57,0.392-0.931c0-0.313-0.125-0.601-0.374-0.863c-0.25-0.263-0.63-0.394-1.141-0.394
		c-0.507,0-0.873,0.131-1.1,0.394c-0.226,0.263-0.339,0.569-0.339,0.922c0,0.396,0.146,0.705,0.438,0.928
		c0.292,0.224,0.638,0.335,1.035,0.335C97.595,132.791,97.958,132.661,98.219,132.4z"/>
	<path d="M106.146,130.617c0.375,0.691,0.562,1.639,0.562,2.842c0,1.141-0.17,2.084-0.51,2.83c-0.492,1.07-1.297,1.605-2.414,1.605
		c-1.008,0-1.758-0.438-2.25-1.312c-0.41-0.73-0.615-1.711-0.615-2.941c0-0.953,0.123-1.771,0.369-2.455
		c0.461-1.273,1.295-1.91,2.502-1.91C104.877,129.275,105.662,129.722,106.146,130.617z M105.085,136.207
		c0.325-0.484,0.487-1.387,0.487-2.707c0-0.953-0.118-1.737-0.352-2.353c-0.235-0.615-0.691-0.923-1.368-0.923
		c-0.622,0-1.077,0.292-1.364,0.876c-0.288,0.584-0.432,1.444-0.432,2.581c0,0.855,0.092,1.543,0.276,2.062
		c0.282,0.793,0.763,1.189,1.444,1.189C104.324,136.933,104.76,136.691,105.085,136.207z"/>
	<path d="M112.82,130.617c0.375,0.691,0.562,1.639,0.562,2.842c0,1.141-0.17,2.084-0.51,2.83c-0.492,1.07-1.297,1.605-2.414,1.605
		c-1.008,0-1.758-0.438-2.25-1.312c-0.41-0.73-0.615-1.711-0.615-2.941c0-0.953,0.123-1.771,0.369-2.455
		c0.461-1.273,1.295-1.91,2.502-1.91C111.551,129.275,112.336,129.722,112.82,130.617z M111.759,136.207
		c0.325-0.484,0.487-1.387,0.487-2.707c0-0.953-0.118-1.737-0.352-2.353c-0.235-0.615-0.691-0.923-1.368-0.923
		c-0.622,0-1.077,0.292-1.364,0.876c-0.288,0.584-0.432,1.444-0.432,2.581c0,0.855,0.092,1.543,0.276,2.062
		c0.282,0.793,0.763,1.189,1.444,1.189C110.998,136.933,111.434,136.691,111.759,136.207z"/>
	<path d="M118.304,131.425h1.084v3.674c-0.008,0.543,0.1,0.967,0.322,1.271c0.215,0.32,0.607,0.48,1.178,0.48
		c0.582,0,0.98-0.164,1.195-0.492c0.211-0.305,0.316-0.725,0.316-1.26v-3.674h1.078v4.729c-0.023,0.465,0.109,0.697,0.398,0.697
		c0.109,0,0.221-0.012,0.334-0.035v0.85c-0.105,0.07-0.326,0.109-0.662,0.117c-0.328-0.023-0.564-0.102-0.709-0.234
		c-0.152-0.129-0.271-0.33-0.357-0.604c-0.375,0.543-0.898,0.822-1.57,0.838c-0.578,0-1.078-0.264-1.5-0.791h-0.023v3.023h-1.084
		V131.425z"/>
	<path d="M125.957,135.697c0.032,0.352,0.122,0.621,0.269,0.809c0.271,0.34,0.742,0.51,1.412,0.51c0.398,0,0.749-0.085,1.052-0.255
		s0.455-0.433,0.455-0.788c0-0.27-0.121-0.475-0.363-0.615c-0.155-0.086-0.46-0.186-0.917-0.299l-0.852-0.211
		c-0.544-0.133-0.945-0.281-1.203-0.445c-0.46-0.285-0.691-0.68-0.691-1.184c0-0.594,0.217-1.074,0.65-1.441
		c0.433-0.367,1.016-0.551,1.749-0.551c0.958,0,1.649,0.277,2.072,0.832c0.265,0.352,0.394,0.73,0.386,1.137h-0.996
		c-0.02-0.237-0.106-0.452-0.258-0.646c-0.248-0.276-0.678-0.414-1.29-0.414c-0.408,0-0.717,0.076-0.927,0.228
		c-0.21,0.152-0.315,0.353-0.315,0.602c0,0.272,0.138,0.49,0.414,0.654c0.159,0.097,0.394,0.183,0.704,0.257l0.71,0.17
		c0.772,0.184,1.29,0.361,1.552,0.533c0.41,0.27,0.615,0.693,0.615,1.271c0,0.559-0.215,1.041-0.644,1.447
		c-0.429,0.406-1.083,0.609-1.961,0.609c-0.945,0-1.614-0.212-2.008-0.636s-0.604-0.948-0.632-1.573H125.957z"/>
</g>
<g enable-background="new    ">
	<path d="M93.332,148.267c0.242-0.031,0.404-0.133,0.486-0.304c0.047-0.095,0.07-0.229,0.07-0.406c0-0.36-0.128-0.622-0.383-0.785
		c-0.255-0.163-0.621-0.244-1.097-0.244c-0.55,0-0.939,0.149-1.169,0.447c-0.129,0.165-0.212,0.41-0.251,0.736h-0.984
		c0.02-0.775,0.27-1.315,0.752-1.619s1.041-0.455,1.677-0.455c0.737,0,1.336,0.141,1.797,0.422c0.457,0.281,0.685,0.719,0.685,1.312
		v3.615c0,0.109,0.022,0.197,0.067,0.264s0.14,0.1,0.284,0.1c0.047,0,0.1-0.003,0.158-0.009s0.121-0.015,0.188-0.026v0.779
		c-0.164,0.047-0.289,0.076-0.375,0.088s-0.203,0.018-0.352,0.018c-0.363,0-0.627-0.129-0.791-0.387
		c-0.086-0.137-0.146-0.33-0.182-0.58c-0.215,0.281-0.523,0.525-0.926,0.732s-0.846,0.311-1.33,0.311
		c-0.582,0-1.058-0.177-1.427-0.529c-0.369-0.354-0.554-0.795-0.554-1.326c0-0.581,0.182-1.031,0.545-1.352
		c0.363-0.319,0.84-0.517,1.43-0.591L93.332,148.267z M91.112,151.117c0.223,0.175,0.486,0.263,0.791,0.263
		c0.371,0,0.73-0.086,1.078-0.258c0.586-0.284,0.879-0.75,0.879-1.397v-0.849c-0.129,0.082-0.294,0.151-0.497,0.206
		s-0.401,0.094-0.597,0.117l-0.637,0.082c-0.382,0.051-0.669,0.131-0.862,0.239c-0.326,0.184-0.489,0.476-0.489,0.877
		C90.778,150.702,90.889,150.941,91.112,151.117z"/>
	<path d="M96.854,144.038h1.066v1.752h1.002v0.861H97.92v4.096c0,0.219,0.074,0.365,0.223,0.439c0.082,0.043,0.219,0.064,0.41,0.064
		c0.051,0,0.105-0.001,0.164-0.004s0.127-0.009,0.205-0.02v0.838c-0.121,0.035-0.247,0.061-0.378,0.076s-0.272,0.023-0.425,0.023
		c-0.492,0-0.826-0.126-1.002-0.378s-0.264-0.579-0.264-0.981v-4.154h-0.85v-0.861h0.85V144.038z"/>
	<path d="M100.188,144.038h1.066v1.752h1.002v0.861h-1.002v4.096c0,0.219,0.074,0.365,0.223,0.439
		c0.082,0.043,0.219,0.064,0.41,0.064c0.051,0,0.105-0.001,0.164-0.004s0.127-0.009,0.205-0.02v0.838
		c-0.121,0.035-0.247,0.061-0.378,0.076s-0.272,0.023-0.425,0.023c-0.492,0-0.826-0.126-1.002-0.378s-0.264-0.579-0.264-0.981
		v-4.154h-0.85v-0.861h0.85V144.038z"/>
	<path d="M107.187,145.962c0.416,0.209,0.732,0.479,0.949,0.812c0.21,0.316,0.35,0.686,0.419,1.107
		c0.062,0.289,0.093,0.75,0.093,1.383h-4.564c0.02,0.639,0.168,1.15,0.448,1.536c0.279,0.386,0.711,0.579,1.296,0.579
		c0.546,0,0.982-0.183,1.308-0.548c0.182-0.211,0.311-0.457,0.387-0.735h1.037c-0.027,0.23-0.118,0.487-0.272,0.771
		s-0.327,0.515-0.517,0.694c-0.318,0.312-0.711,0.523-1.18,0.633c-0.252,0.062-0.537,0.094-0.855,0.094
		c-0.776,0-1.434-0.284-1.974-0.853c-0.54-0.568-0.81-1.364-0.81-2.388c0-1.008,0.271-1.826,0.815-2.455
		c0.543-0.629,1.254-0.943,2.131-0.943C106.343,145.649,106.772,145.753,107.187,145.962z M107.565,148.426
		c-0.042-0.457-0.142-0.822-0.296-1.096c-0.287-0.508-0.765-0.762-1.435-0.762c-0.48,0-0.883,0.175-1.208,0.524
		s-0.498,0.794-0.517,1.333H107.565z"/>
	<path d="M109.985,145.79h1.002v0.891c0.297-0.367,0.611-0.631,0.943-0.791s0.701-0.24,1.107-0.24c0.891,0,1.492,0.311,1.805,0.932
		c0.172,0.34,0.258,0.826,0.258,1.459v4.025h-1.072v-3.955c0-0.383-0.057-0.691-0.17-0.926c-0.188-0.391-0.527-0.586-1.02-0.586
		c-0.25,0-0.455,0.025-0.615,0.076c-0.289,0.086-0.543,0.258-0.762,0.516c-0.176,0.207-0.29,0.421-0.343,0.642
		s-0.079,0.536-0.079,0.946v3.287h-1.055V145.79z"/>
	<path d="M116.869,144.038h1.066v1.752h1.002v0.861h-1.002v4.096c0,0.219,0.074,0.365,0.223,0.439
		c0.082,0.043,0.219,0.064,0.41,0.064c0.051,0,0.105-0.001,0.164-0.004s0.127-0.009,0.205-0.02v0.838
		c-0.121,0.035-0.247,0.061-0.378,0.076s-0.272,0.023-0.425,0.023c-0.492,0-0.826-0.126-1.002-0.378s-0.264-0.579-0.264-0.981
		v-4.154h-0.85v-0.861h0.85V144.038z"/>
	<path d="M119.992,143.458h1.072v1.195h-1.072V143.458z M119.992,145.819h1.072v6.246h-1.072V145.819z"/>
	<path d="M127.205,146.416c0.555,0.539,0.832,1.331,0.832,2.377c0,1.011-0.245,1.847-0.733,2.506
		c-0.488,0.659-1.247,0.989-2.274,0.989c-0.857,0-1.538-0.292-2.042-0.875c-0.504-0.584-0.756-1.367-0.756-2.351
		c0-1.054,0.266-1.893,0.797-2.518c0.532-0.624,1.245-0.937,2.141-0.937C125.972,145.608,126.651,145.877,127.205,146.416z
		 M126.551,150.586c0.257-0.528,0.385-1.117,0.385-1.765c0-0.585-0.093-1.061-0.278-1.428c-0.293-0.577-0.799-0.866-1.518-0.866
		c-0.638,0-1.101,0.246-1.391,0.737c-0.29,0.492-0.435,1.085-0.435,1.779c0,0.667,0.145,1.223,0.435,1.668
		c0.29,0.444,0.749,0.667,1.379,0.667C125.82,151.379,126.294,151.115,126.551,150.586z"/>
	<path d="M129.332,145.79h1.002v0.891c0.297-0.367,0.611-0.631,0.943-0.791s0.701-0.24,1.107-0.24c0.891,0,1.492,0.311,1.805,0.932
		c0.172,0.34,0.258,0.826,0.258,1.459v4.025h-1.072v-3.955c0-0.383-0.057-0.691-0.17-0.926c-0.188-0.391-0.527-0.586-1.02-0.586
		c-0.25,0-0.455,0.025-0.615,0.076c-0.289,0.086-0.543,0.258-0.762,0.516c-0.176,0.207-0.29,0.421-0.343,0.642
		s-0.079,0.536-0.079,0.946v3.287h-1.055V145.79z"/>
</g>
<line fill="none" stroke="#000000" stroke-miterlimit="10" x1="236.103" y1="10.331" x2="236.103" y2="95.665"/>
<line fill="none" stroke="#000000" stroke-miterlimit="10" x1="358.734" y1="10.332" x2="358.734" y2="95.665"/>
<line fill="none" stroke="#000000" stroke-miterlimit="10" x1="358.734" y1="95.665" x2="401.339" y2="95.667"/>
<line fill="none" stroke="#000000" stroke-miterlimit="10" x1="401.337" y1="95.667" x2="401.337" y2="10.333"/>
<g>
	<g>
		<line fill="none" stroke="#000000" stroke-miterlimit="10" x1="427.331" y1="95.667" x2="427.331" y2="93.167"/>
		
			<line fill="none" stroke="#000000" stroke-miterlimit="10" stroke-dasharray="4.7257,4.7257" x1="427.331" y1="88.441" x2="427.331" y2="15.192"/>
		<line fill="none" stroke="#000000" stroke-miterlimit="10" x1="427.331" y1="12.829" x2="427.331" y2="10.329"/>
	</g>
</g>
<line fill="none" stroke="#000000" stroke-miterlimit="10" x1="401.331" y1="10.333" x2="518" y2="10.333"/>
<g enable-background="new    ">
	<path d="M202.218,129.416v0.92c-0.27,0.262-0.628,0.717-1.075,1.365s-0.843,1.348-1.187,2.098c-0.34,0.73-0.598,1.396-0.773,1.998
		c-0.113,0.387-0.26,1.01-0.439,1.869h-1.166c0.266-1.602,0.852-3.195,1.758-4.781c0.535-0.93,1.098-1.732,1.688-2.408h-4.641
		v-1.061H202.218z"/>
	<path d="M208.218,130.617c0.375,0.691,0.562,1.639,0.562,2.842c0,1.141-0.17,2.084-0.51,2.83c-0.492,1.07-1.297,1.605-2.414,1.605
		c-1.008,0-1.758-0.438-2.25-1.312c-0.41-0.73-0.615-1.711-0.615-2.941c0-0.953,0.123-1.771,0.369-2.455
		c0.461-1.273,1.295-1.91,2.502-1.91C206.948,129.275,207.733,129.722,208.218,130.617z M207.156,136.207
		c0.325-0.484,0.487-1.387,0.487-2.707c0-0.953-0.118-1.737-0.352-2.353c-0.235-0.615-0.691-0.923-1.368-0.923
		c-0.622,0-1.077,0.292-1.364,0.876c-0.288,0.584-0.432,1.444-0.432,2.581c0,0.855,0.092,1.543,0.276,2.062
		c0.282,0.793,0.763,1.189,1.444,1.189C206.395,136.933,206.831,136.691,207.156,136.207z"/>
	<path d="M213.702,131.425h1.084v3.674c-0.008,0.543,0.1,0.967,0.322,1.271c0.215,0.32,0.607,0.48,1.178,0.48
		c0.582,0,0.98-0.164,1.195-0.492c0.211-0.305,0.316-0.725,0.316-1.26v-3.674h1.078v4.729c-0.023,0.465,0.109,0.697,0.398,0.697
		c0.109,0,0.221-0.012,0.334-0.035v0.85c-0.105,0.07-0.326,0.109-0.662,0.117c-0.328-0.023-0.564-0.102-0.709-0.234
		c-0.152-0.129-0.271-0.33-0.357-0.604c-0.375,0.543-0.898,0.822-1.57,0.838c-0.578,0-1.078-0.264-1.5-0.791h-0.023v3.023h-1.084
		V131.425z"/>
	<path d="M221.354,135.697c0.032,0.352,0.122,0.621,0.269,0.809c0.271,0.34,0.742,0.51,1.412,0.51c0.398,0,0.749-0.085,1.052-0.255
		s0.455-0.433,0.455-0.788c0-0.27-0.121-0.475-0.363-0.615c-0.155-0.086-0.46-0.186-0.917-0.299l-0.852-0.211
		c-0.544-0.133-0.945-0.281-1.203-0.445c-0.46-0.285-0.691-0.68-0.691-1.184c0-0.594,0.217-1.074,0.65-1.441
		c0.433-0.367,1.016-0.551,1.749-0.551c0.958,0,1.649,0.277,2.072,0.832c0.265,0.352,0.394,0.73,0.386,1.137h-0.996
		c-0.02-0.237-0.106-0.452-0.258-0.646c-0.248-0.276-0.678-0.414-1.29-0.414c-0.408,0-0.717,0.076-0.927,0.228
		c-0.21,0.152-0.315,0.353-0.315,0.602c0,0.272,0.138,0.49,0.414,0.654c0.159,0.097,0.394,0.183,0.704,0.257l0.71,0.17
		c0.772,0.184,1.29,0.361,1.552,0.533c0.41,0.27,0.615,0.693,0.615,1.271c0,0.559-0.215,1.041-0.644,1.447
		c-0.429,0.406-1.083,0.609-1.961,0.609c-0.945,0-1.614-0.212-2.008-0.636s-0.604-0.948-0.632-1.573H221.354z"/>
</g>
<g enable-background="new    ">
	<path d="M200.012,150.096c0.032,0.352,0.122,0.621,0.269,0.809c0.271,0.34,0.742,0.51,1.412,0.51c0.398,0,0.749-0.085,1.052-0.255
		s0.455-0.433,0.455-0.788c0-0.27-0.121-0.475-0.363-0.615c-0.155-0.086-0.46-0.186-0.917-0.299l-0.852-0.211
		c-0.544-0.133-0.945-0.281-1.203-0.445c-0.46-0.285-0.691-0.68-0.691-1.184c0-0.594,0.217-1.074,0.65-1.441
		c0.433-0.367,1.016-0.551,1.749-0.551c0.958,0,1.649,0.277,2.072,0.832c0.265,0.352,0.394,0.73,0.386,1.137h-0.996
		c-0.02-0.237-0.106-0.452-0.258-0.646c-0.248-0.276-0.678-0.414-1.29-0.414c-0.408,0-0.717,0.076-0.927,0.228
		c-0.21,0.152-0.315,0.353-0.315,0.602c0,0.272,0.138,0.49,0.414,0.654c0.159,0.097,0.394,0.183,0.704,0.257l0.71,0.17
		c0.772,0.184,1.29,0.361,1.552,0.533c0.41,0.27,0.615,0.693,0.615,1.271c0,0.559-0.215,1.041-0.644,1.447
		c-0.429,0.406-1.083,0.609-1.961,0.609c-0.945,0-1.614-0.212-2.008-0.636s-0.604-0.948-0.632-1.573H200.012z"/>
	<path d="M209.308,145.79h1.166c-0.148,0.402-0.479,1.321-0.99,2.755c-0.383,1.079-0.703,1.958-0.961,2.639
		c-0.609,1.6-1.038,2.576-1.288,2.927c-0.25,0.352-0.679,0.527-1.288,0.527c-0.148,0-0.263-0.006-0.343-0.018
		c-0.08-0.012-0.178-0.033-0.295-0.064v-0.961c0.183,0.051,0.316,0.082,0.397,0.094c0.082,0.012,0.154,0.018,0.217,0.018
		c0.195,0,0.338-0.032,0.43-0.097c0.092-0.064,0.169-0.144,0.231-0.236c0.019-0.031,0.089-0.191,0.21-0.479
		c0.121-0.289,0.208-0.503,0.263-0.644l-2.32-6.46h1.195l1.682,5.111L209.308,145.79z"/>
	<path d="M211.385,145.79h1.002v0.891c0.297-0.367,0.611-0.631,0.943-0.791s0.701-0.24,1.107-0.24c0.891,0,1.492,0.311,1.805,0.932
		c0.172,0.34,0.258,0.826,0.258,1.459v4.025h-1.072v-3.955c0-0.383-0.057-0.691-0.17-0.926c-0.188-0.391-0.527-0.586-1.02-0.586
		c-0.25,0-0.455,0.025-0.615,0.076c-0.289,0.086-0.543,0.258-0.762,0.516c-0.176,0.207-0.29,0.421-0.343,0.642
		s-0.079,0.536-0.079,0.946v3.287h-1.055V145.79z"/>
	<path d="M222.204,146.124c0.443,0.344,0.71,0.936,0.8,1.775h-1.025c-0.062-0.387-0.205-0.708-0.428-0.964s-0.58-0.384-1.072-0.384
		c-0.672,0-1.152,0.328-1.441,0.983c-0.188,0.425-0.281,0.95-0.281,1.574c0,0.628,0.133,1.156,0.398,1.586
		c0.266,0.429,0.684,0.644,1.254,0.644c0.438,0,0.784-0.133,1.04-0.399s0.433-0.632,0.53-1.095h1.025
		c-0.117,0.832-0.41,1.44-0.879,1.825s-1.068,0.577-1.799,0.577c-0.82,0-1.475-0.3-1.963-0.899s-0.732-1.349-0.732-2.247
		c0-1.102,0.268-1.959,0.803-2.572s1.217-0.92,2.045-0.92C221.186,145.608,221.761,145.78,222.204,146.124z"/>
</g>
<g enable-background="new    ">
	<path d="M280.218,132.755c-0.309-0.312-0.463-0.719-0.463-1.219c0-0.625,0.226-1.162,0.678-1.611
		c0.453-0.449,1.096-0.674,1.926-0.674c0.805,0,1.435,0.212,1.891,0.636c0.457,0.424,0.686,0.919,0.686,1.485
		c0,0.523-0.133,0.947-0.398,1.271c-0.148,0.184-0.379,0.363-0.691,0.539c0.35,0.16,0.623,0.344,0.824,0.551
		c0.371,0.391,0.559,0.898,0.559,1.523c0,0.738-0.248,1.364-0.744,1.878s-1.197,0.771-2.104,0.771c-0.816,0-1.508-0.222-2.072-0.665
		s-0.846-1.087-0.846-1.931c0-0.496,0.121-0.925,0.363-1.286s0.602-0.638,1.078-0.829
		C280.611,133.07,280.382,132.923,280.218,132.755z M283.618,136.549c0.322-0.264,0.484-0.657,0.484-1.181
		c0-0.543-0.166-0.955-0.498-1.236s-0.758-0.422-1.277-0.422c-0.504,0-0.916,0.144-1.234,0.431s-0.477,0.685-0.477,1.192
		c0,0.438,0.145,0.815,0.436,1.134s0.742,0.478,1.352,0.478C282.892,136.945,283.296,136.813,283.618,136.549z M283.423,132.4
		c0.262-0.26,0.393-0.57,0.393-0.931c0-0.313-0.125-0.601-0.375-0.863s-0.629-0.394-1.141-0.394c-0.506,0-0.873,0.131-1.1,0.394
		c-0.226,0.263-0.338,0.569-0.338,0.922c0,0.396,0.146,0.705,0.438,0.928c0.293,0.224,0.639,0.335,1.035,0.335
		C282.8,132.791,283.162,132.661,283.423,132.4z"/>
	<path d="M291.351,130.617c0.375,0.691,0.562,1.639,0.562,2.842c0,1.141-0.17,2.084-0.51,2.83c-0.492,1.07-1.297,1.605-2.414,1.605
		c-1.008,0-1.758-0.438-2.25-1.312c-0.41-0.73-0.615-1.711-0.615-2.941c0-0.953,0.123-1.771,0.369-2.455
		c0.461-1.273,1.295-1.91,2.502-1.91C290.081,129.275,290.866,129.722,291.351,130.617z M290.288,136.207
		c0.325-0.484,0.488-1.387,0.488-2.707c0-0.953-0.118-1.737-0.353-2.353c-0.235-0.615-0.69-0.923-1.368-0.923
		c-0.621,0-1.076,0.292-1.363,0.876c-0.289,0.584-0.432,1.444-0.432,2.581c0,0.855,0.092,1.543,0.275,2.062
		c0.281,0.793,0.764,1.189,1.443,1.189C289.529,136.933,289.964,136.691,290.288,136.207z"/>
	<path d="M298.025,130.617c0.375,0.691,0.562,1.639,0.562,2.842c0,1.141-0.17,2.084-0.51,2.83c-0.492,1.07-1.297,1.605-2.414,1.605
		c-1.008,0-1.758-0.438-2.25-1.312c-0.41-0.73-0.615-1.711-0.615-2.941c0-0.953,0.123-1.771,0.369-2.455
		c0.461-1.273,1.295-1.91,2.502-1.91C296.755,129.275,297.54,129.722,298.025,130.617z M296.962,136.207
		c0.325-0.484,0.488-1.387,0.488-2.707c0-0.953-0.118-1.737-0.353-2.353c-0.235-0.615-0.69-0.923-1.368-0.923
		c-0.621,0-1.076,0.292-1.363,0.876c-0.289,0.584-0.432,1.444-0.432,2.581c0,0.855,0.092,1.543,0.275,2.062
		c0.281,0.793,0.764,1.189,1.443,1.189C296.202,136.933,296.638,136.691,296.962,136.207z"/>
	<path d="M303.509,131.425h1.084v3.674c-0.008,0.543,0.1,0.967,0.322,1.271c0.215,0.32,0.607,0.48,1.178,0.48
		c0.582,0,0.98-0.164,1.195-0.492c0.211-0.305,0.316-0.725,0.316-1.26v-3.674h1.078v4.729c-0.023,0.465,0.109,0.697,0.398,0.697
		c0.109,0,0.221-0.012,0.334-0.035v0.85c-0.105,0.07-0.326,0.109-0.662,0.117c-0.328-0.023-0.564-0.102-0.709-0.234
		c-0.152-0.129-0.271-0.33-0.357-0.604c-0.375,0.543-0.898,0.822-1.57,0.838c-0.578,0-1.078-0.264-1.5-0.791h-0.023v3.023h-1.084
		V131.425z"/>
	<path d="M311.161,135.697c0.031,0.352,0.121,0.621,0.269,0.809c0.271,0.34,0.741,0.51,1.411,0.51c0.398,0,0.75-0.085,1.053-0.255
		s0.455-0.433,0.455-0.788c0-0.27-0.121-0.475-0.363-0.615c-0.155-0.086-0.461-0.186-0.918-0.299l-0.852-0.211
		c-0.543-0.133-0.944-0.281-1.202-0.445c-0.46-0.285-0.69-0.68-0.69-1.184c0-0.594,0.217-1.074,0.65-1.441
		c0.433-0.367,1.016-0.551,1.748-0.551c0.958,0,1.648,0.277,2.072,0.832c0.266,0.352,0.395,0.73,0.387,1.137h-0.996
		c-0.021-0.237-0.106-0.452-0.258-0.646c-0.248-0.276-0.678-0.414-1.29-0.414c-0.408,0-0.717,0.076-0.927,0.228
		c-0.21,0.152-0.314,0.353-0.314,0.602c0,0.272,0.137,0.49,0.414,0.654c0.158,0.097,0.393,0.183,0.703,0.257l0.711,0.17
		c0.771,0.184,1.289,0.361,1.553,0.533c0.41,0.27,0.615,0.693,0.615,1.271c0,0.559-0.215,1.041-0.645,1.447
		c-0.429,0.406-1.082,0.609-1.961,0.609c-0.944,0-1.613-0.212-2.008-0.636c-0.393-0.424-0.604-0.948-0.631-1.573H311.161z"/>
</g>
<g enable-background="new    ">
	<path d="M264.99,146.124c0.443,0.344,0.71,0.936,0.8,1.775h-1.025c-0.062-0.387-0.205-0.708-0.428-0.964s-0.58-0.384-1.072-0.384
		c-0.672,0-1.152,0.328-1.441,0.983c-0.188,0.425-0.281,0.95-0.281,1.574c0,0.628,0.133,1.156,0.398,1.586
		c0.266,0.429,0.684,0.644,1.254,0.644c0.438,0,0.784-0.133,1.04-0.399s0.433-0.632,0.53-1.095h1.025
		c-0.117,0.832-0.41,1.44-0.879,1.825s-1.068,0.577-1.799,0.577c-0.82,0-1.475-0.3-1.963-0.899s-0.732-1.349-0.732-2.247
		c0-1.102,0.268-1.959,0.803-2.572s1.217-0.92,2.045-0.92C263.971,145.608,264.546,145.78,264.99,146.124z"/>
	<path d="M271.391,146.416c0.555,0.539,0.832,1.331,0.832,2.377c0,1.011-0.245,1.847-0.733,2.506s-1.246,0.989-2.274,0.989
		c-0.857,0-1.538-0.292-2.042-0.875c-0.505-0.584-0.757-1.367-0.757-2.351c0-1.054,0.266-1.893,0.797-2.518
		c0.532-0.624,1.245-0.937,2.142-0.937C270.157,145.608,270.836,145.877,271.391,146.416z M270.736,150.586
		c0.258-0.528,0.386-1.117,0.386-1.765c0-0.585-0.093-1.061-0.278-1.428c-0.293-0.577-0.799-0.866-1.518-0.866
		c-0.638,0-1.102,0.246-1.391,0.737c-0.289,0.492-0.435,1.085-0.435,1.779c0,0.667,0.146,1.223,0.435,1.668
		c0.289,0.444,0.749,0.667,1.379,0.667C270.005,151.379,270.48,151.115,270.736,150.586z"/>
	<path d="M273.518,145.79h1.043v0.891c0.25-0.309,0.477-0.533,0.68-0.674c0.348-0.238,0.742-0.357,1.184-0.357
		c0.5,0,0.902,0.123,1.207,0.369c0.172,0.141,0.328,0.348,0.469,0.621c0.234-0.336,0.51-0.585,0.826-0.747s0.672-0.243,1.066-0.243
		c0.844,0,1.418,0.305,1.723,0.914c0.164,0.328,0.246,0.77,0.246,1.324v4.178h-1.096v-4.359c0-0.418-0.104-0.705-0.313-0.861
		s-0.464-0.234-0.765-0.234c-0.414,0-0.771,0.139-1.069,0.416s-0.448,0.74-0.448,1.389v3.65h-1.072v-4.096
		c0-0.426-0.051-0.736-0.152-0.932c-0.16-0.293-0.459-0.439-0.896-0.439c-0.398,0-0.761,0.154-1.087,0.463s-0.489,0.867-0.489,1.676
		v3.328h-1.055V145.79z"/>
	<path d="M283.514,145.79h1.043v0.891c0.25-0.309,0.477-0.533,0.68-0.674c0.348-0.238,0.742-0.357,1.184-0.357
		c0.5,0,0.902,0.123,1.207,0.369c0.172,0.141,0.328,0.348,0.469,0.621c0.234-0.336,0.51-0.585,0.826-0.747s0.672-0.243,1.066-0.243
		c0.844,0,1.418,0.305,1.723,0.914c0.164,0.328,0.246,0.77,0.246,1.324v4.178h-1.096v-4.359c0-0.418-0.104-0.705-0.313-0.861
		s-0.464-0.234-0.765-0.234c-0.414,0-0.771,0.139-1.069,0.416s-0.448,0.74-0.448,1.389v3.65h-1.072v-4.096
		c0-0.426-0.051-0.736-0.152-0.932c-0.16-0.293-0.459-0.439-0.896-0.439c-0.398,0-0.761,0.154-1.087,0.463s-0.489,0.867-0.489,1.676
		v3.328h-1.055V145.79z"/>
	<path d="M296.873,148.267c0.242-0.031,0.404-0.133,0.486-0.304c0.047-0.095,0.07-0.229,0.07-0.406c0-0.36-0.128-0.622-0.383-0.785
		s-0.621-0.244-1.097-0.244c-0.55,0-0.939,0.149-1.17,0.447c-0.129,0.165-0.212,0.41-0.251,0.736h-0.984
		c0.02-0.775,0.271-1.315,0.752-1.619s1.041-0.455,1.677-0.455c0.737,0,1.336,0.141,1.797,0.422
		c0.457,0.281,0.685,0.719,0.685,1.312v3.615c0,0.109,0.022,0.197,0.067,0.264s0.14,0.1,0.284,0.1c0.047,0,0.1-0.003,0.158-0.009
		s0.121-0.015,0.188-0.026v0.779c-0.164,0.047-0.289,0.076-0.375,0.088s-0.203,0.018-0.352,0.018c-0.363,0-0.627-0.129-0.791-0.387
		c-0.086-0.137-0.146-0.33-0.182-0.58c-0.215,0.281-0.523,0.525-0.926,0.732s-0.846,0.311-1.33,0.311
		c-0.582,0-1.058-0.177-1.427-0.529c-0.369-0.354-0.554-0.795-0.554-1.326c0-0.581,0.182-1.031,0.545-1.352
		c0.363-0.319,0.84-0.517,1.43-0.591L296.873,148.267z M294.653,151.117c0.223,0.175,0.486,0.263,0.791,0.263
		c0.371,0,0.73-0.086,1.078-0.258c0.586-0.284,0.879-0.75,0.879-1.397v-0.849c-0.129,0.082-0.294,0.151-0.497,0.206
		s-0.401,0.094-0.597,0.117l-0.638,0.082c-0.381,0.051-0.669,0.131-0.861,0.239c-0.326,0.184-0.489,0.476-0.489,0.877
		C294.319,150.702,294.43,150.941,294.653,151.117z"/>
	<path d="M300.184,145.79h1.002v0.891c0.297-0.367,0.611-0.631,0.943-0.791s0.701-0.24,1.107-0.24c0.891,0,1.492,0.311,1.805,0.932
		c0.172,0.34,0.258,0.826,0.258,1.459v4.025h-1.072v-3.955c0-0.383-0.057-0.691-0.17-0.926c-0.188-0.391-0.527-0.586-1.02-0.586
		c-0.25,0-0.455,0.025-0.615,0.076c-0.289,0.086-0.543,0.258-0.762,0.516c-0.176,0.207-0.29,0.421-0.343,0.642
		s-0.079,0.536-0.079,0.946v3.287h-1.055V145.79z"/>
	<path d="M310.306,145.983c0.187,0.117,0.398,0.322,0.636,0.615v-3.17h1.014v8.637h-0.949v-0.873
		c-0.245,0.387-0.535,0.666-0.87,0.838c-0.334,0.172-0.718,0.258-1.149,0.258c-0.696,0-1.3-0.294-1.81-0.882
		s-0.765-1.37-0.765-2.347c0-0.914,0.232-1.706,0.697-2.376c0.466-0.67,1.13-1.005,1.993-1.005
		C309.581,145.678,309.983,145.78,310.306,145.983z M307.951,150.688c0.284,0.453,0.738,0.68,1.364,0.68
		c0.485,0,0.885-0.21,1.197-0.63c0.313-0.42,0.47-1.022,0.47-1.808c0-0.793-0.161-1.38-0.483-1.761
		c-0.323-0.381-0.722-0.571-1.195-0.571c-0.529,0-0.957,0.203-1.285,0.609c-0.329,0.406-0.493,1.004-0.493,1.793
		C307.526,149.672,307.667,150.235,307.951,150.688z"/>
	<path d="M316.778,143.428h1.025v3.123c0.231-0.301,0.508-0.53,0.829-0.688c0.322-0.158,0.671-0.237,1.047-0.237
		c0.785,0,1.421,0.269,1.909,0.806s0.732,1.329,0.732,2.376c0,0.992-0.241,1.816-0.724,2.473s-1.15,0.984-2.006,0.984
		c-0.479,0-0.882-0.115-1.211-0.346c-0.197-0.137-0.406-0.355-0.63-0.656v0.803h-0.973V143.428z M320.81,150.653
		c0.285-0.453,0.427-1.051,0.427-1.793c0-0.66-0.142-1.207-0.427-1.641c-0.283-0.434-0.702-0.65-1.255-0.65
		c-0.481,0-0.904,0.178-1.267,0.533c-0.363,0.355-0.544,0.941-0.544,1.758c0,0.59,0.074,1.068,0.224,1.436
		c0.277,0.691,0.797,1.037,1.558,1.037C320.098,151.333,320.527,151.106,320.81,150.653z"/>
	<path d="M323.539,143.458h1.072v1.195h-1.072V143.458z M323.539,145.819h1.072v6.246h-1.072V145.819z"/>
	<path d="M326.416,144.038h1.066v1.752h1.002v0.861h-1.002v4.096c0,0.219,0.074,0.365,0.223,0.439
		c0.082,0.043,0.219,0.064,0.41,0.064c0.051,0,0.105-0.001,0.164-0.004s0.127-0.009,0.205-0.02v0.838
		c-0.121,0.035-0.247,0.061-0.378,0.076s-0.272,0.023-0.425,0.023c-0.492,0-0.826-0.126-1.002-0.378s-0.264-0.579-0.264-0.981
		v-4.154h-0.85v-0.861h0.85V144.038z"/>
	<path d="M330.166,150.096c0.032,0.352,0.122,0.621,0.269,0.809c0.271,0.34,0.742,0.51,1.412,0.51c0.398,0,0.749-0.085,1.053-0.255
		c0.303-0.17,0.454-0.433,0.454-0.788c0-0.27-0.121-0.475-0.363-0.615c-0.155-0.086-0.46-0.186-0.917-0.299l-0.852-0.211
		c-0.544-0.133-0.945-0.281-1.203-0.445c-0.46-0.285-0.69-0.68-0.69-1.184c0-0.594,0.217-1.074,0.65-1.441
		c0.433-0.367,1.017-0.551,1.749-0.551c0.957,0,1.648,0.277,2.072,0.832c0.265,0.352,0.394,0.73,0.386,1.137h-0.996
		c-0.021-0.237-0.106-0.452-0.258-0.646c-0.248-0.276-0.678-0.414-1.29-0.414c-0.408,0-0.717,0.076-0.926,0.228
		c-0.211,0.152-0.315,0.353-0.315,0.602c0,0.272,0.138,0.49,0.414,0.654c0.159,0.097,0.394,0.183,0.704,0.257l0.711,0.17
		c0.771,0.184,1.289,0.361,1.552,0.533c0.41,0.27,0.615,0.693,0.615,1.271c0,0.559-0.215,1.041-0.644,1.447
		c-0.43,0.406-1.083,0.609-1.961,0.609c-0.945,0-1.614-0.212-2.008-0.636s-0.604-0.948-0.632-1.573H330.166z"/>
</g>
<g enable-background="new    ">
	<path d="M375.84,131.724v-0.809c0.762-0.074,1.293-0.198,1.594-0.372s0.525-0.585,0.674-1.233h0.832v8.355h-1.125v-5.941H375.84z"
		/>
	<path d="M386.967,130.617c0.375,0.691,0.562,1.639,0.562,2.842c0,1.141-0.17,2.084-0.51,2.83c-0.492,1.07-1.297,1.605-2.414,1.605
		c-1.008,0-1.758-0.438-2.25-1.312c-0.41-0.73-0.615-1.711-0.615-2.941c0-0.953,0.123-1.771,0.369-2.455
		c0.461-1.273,1.295-1.91,2.502-1.91C385.698,129.275,386.483,129.722,386.967,130.617z M385.906,136.207
		c0.324-0.484,0.487-1.387,0.487-2.707c0-0.953-0.118-1.737-0.353-2.353s-0.69-0.923-1.367-0.923c-0.622,0-1.077,0.292-1.364,0.876
		c-0.288,0.584-0.432,1.444-0.432,2.581c0,0.855,0.092,1.543,0.276,2.062c0.281,0.793,0.763,1.189,1.443,1.189
		C385.145,136.933,385.581,136.691,385.906,136.207z"/>
	<path d="M393.641,130.617c0.375,0.691,0.562,1.639,0.562,2.842c0,1.141-0.17,2.084-0.51,2.83c-0.492,1.07-1.297,1.605-2.414,1.605
		c-1.008,0-1.758-0.438-2.25-1.312c-0.41-0.73-0.615-1.711-0.615-2.941c0-0.953,0.123-1.771,0.369-2.455
		c0.461-1.273,1.295-1.91,2.502-1.91C392.371,129.275,393.156,129.722,393.641,130.617z M392.579,136.207
		c0.324-0.484,0.487-1.387,0.487-2.707c0-0.953-0.118-1.737-0.353-2.353s-0.69-0.923-1.367-0.923c-0.622,0-1.077,0.292-1.364,0.876
		c-0.288,0.584-0.432,1.444-0.432,2.581c0,0.855,0.092,1.543,0.276,2.062c0.281,0.793,0.763,1.189,1.443,1.189
		C391.819,136.933,392.255,136.691,392.579,136.207z"/>
	<path d="M399.125,131.425h1.084v3.674c-0.008,0.543,0.1,0.967,0.322,1.271c0.215,0.32,0.607,0.48,1.178,0.48
		c0.582,0,0.98-0.164,1.195-0.492c0.211-0.305,0.316-0.725,0.316-1.26v-3.674h1.078v4.729c-0.023,0.465,0.109,0.697,0.398,0.697
		c0.109,0,0.221-0.012,0.334-0.035v0.85c-0.105,0.07-0.326,0.109-0.662,0.117c-0.328-0.023-0.564-0.102-0.709-0.234
		c-0.152-0.129-0.271-0.33-0.357-0.604c-0.375,0.543-0.898,0.822-1.57,0.838c-0.578,0-1.078-0.264-1.5-0.791h-0.023v3.023h-1.084
		V131.425z"/>
	<path d="M406.778,135.697c0.032,0.352,0.122,0.621,0.269,0.809c0.271,0.34,0.742,0.51,1.412,0.51c0.398,0,0.749-0.085,1.053-0.255
		c0.303-0.17,0.454-0.433,0.454-0.788c0-0.27-0.121-0.475-0.363-0.615c-0.155-0.086-0.46-0.186-0.917-0.299l-0.852-0.211
		c-0.544-0.133-0.945-0.281-1.203-0.445c-0.46-0.285-0.69-0.68-0.69-1.184c0-0.594,0.217-1.074,0.65-1.441
		c0.433-0.367,1.017-0.551,1.749-0.551c0.957,0,1.648,0.277,2.072,0.832c0.265,0.352,0.394,0.73,0.386,1.137h-0.996
		c-0.021-0.237-0.106-0.452-0.258-0.646c-0.248-0.276-0.678-0.414-1.29-0.414c-0.408,0-0.717,0.076-0.926,0.228
		c-0.211,0.152-0.315,0.353-0.315,0.602c0,0.272,0.138,0.49,0.414,0.654c0.159,0.097,0.394,0.183,0.704,0.257l0.711,0.17
		c0.771,0.184,1.289,0.361,1.552,0.533c0.41,0.27,0.615,0.693,0.615,1.271c0,0.559-0.215,1.041-0.644,1.447
		c-0.43,0.406-1.083,0.609-1.961,0.609c-0.945,0-1.614-0.212-2.008-0.636s-0.604-0.948-0.632-1.573H406.778z"/>
</g>
<g enable-background="new    ">
	<path d="M368.047,143.926c-0.215,0.035-0.378,0.156-0.489,0.363s-0.167,0.447-0.167,0.721c0,0.023,0.001,0.046,0.003,0.067
		s0.007,0.046,0.015,0.073h0.639v1.277h-1.254v-1.178c0-0.465,0.098-0.88,0.293-1.245s0.516-0.575,0.961-0.63V143.926z"/>
	<path d="M374.287,145.016c0.375,0.691,0.562,1.639,0.562,2.842c0,1.141-0.17,2.084-0.51,2.83c-0.492,1.07-1.297,1.605-2.414,1.605
		c-1.008,0-1.758-0.438-2.25-1.312c-0.41-0.73-0.615-1.711-0.615-2.941c0-0.953,0.123-1.771,0.369-2.455
		c0.461-1.273,1.295-1.91,2.502-1.91C373.018,143.674,373.803,144.122,374.287,145.016z M373.226,150.606
		c0.324-0.484,0.487-1.387,0.487-2.707c0-0.953-0.118-1.737-0.353-2.353s-0.69-0.923-1.367-0.923c-0.622,0-1.077,0.292-1.364,0.876
		c-0.288,0.584-0.432,1.444-0.432,2.581c0,0.855,0.092,1.543,0.276,2.062c0.281,0.793,0.763,1.189,1.443,1.189
		C372.465,151.333,372.902,151.09,373.226,150.606z"/>
	<path d="M376.356,145.959c0.217-0.035,0.382-0.156,0.493-0.363c0.113-0.207,0.169-0.445,0.169-0.715
		c0-0.027-0.001-0.052-0.003-0.073s-0.007-0.046-0.015-0.073h-0.645v-1.277h1.254v1.178c0,0.5-0.104,0.925-0.311,1.274
		s-0.521,0.55-0.943,0.601V145.959z"/>
	<path d="M382.321,150.096c0.032,0.352,0.122,0.621,0.269,0.809c0.271,0.34,0.742,0.51,1.412,0.51c0.398,0,0.749-0.085,1.053-0.255
		c0.303-0.17,0.454-0.433,0.454-0.788c0-0.27-0.121-0.475-0.363-0.615c-0.155-0.086-0.46-0.186-0.917-0.299l-0.852-0.211
		c-0.544-0.133-0.945-0.281-1.203-0.445c-0.46-0.285-0.69-0.68-0.69-1.184c0-0.594,0.217-1.074,0.65-1.441
		c0.433-0.367,1.017-0.551,1.749-0.551c0.957,0,1.648,0.277,2.072,0.832c0.265,0.352,0.394,0.73,0.386,1.137h-0.996
		c-0.021-0.237-0.106-0.452-0.258-0.646c-0.248-0.276-0.678-0.414-1.29-0.414c-0.408,0-0.717,0.076-0.926,0.228
		c-0.211,0.152-0.315,0.353-0.315,0.602c0,0.272,0.138,0.49,0.414,0.654c0.159,0.097,0.394,0.183,0.704,0.257l0.711,0.17
		c0.771,0.184,1.289,0.361,1.552,0.533c0.41,0.27,0.615,0.693,0.615,1.271c0,0.559-0.215,1.041-0.644,1.447
		c-0.43,0.406-1.083,0.609-1.961,0.609c-0.945,0-1.614-0.212-2.008-0.636s-0.604-0.948-0.632-1.573H382.321z"/>
	<path d="M387.905,144.038h1.066v1.752h1.002v0.861h-1.002v4.096c0,0.219,0.074,0.365,0.223,0.439
		c0.082,0.043,0.219,0.064,0.41,0.064c0.051,0,0.105-0.001,0.164-0.004s0.127-0.009,0.205-0.02v0.838
		c-0.121,0.035-0.247,0.061-0.378,0.076s-0.272,0.023-0.425,0.023c-0.492,0-0.826-0.126-1.002-0.378s-0.264-0.579-0.264-0.981
		v-4.154h-0.85v-0.861h0.85V144.038z"/>
	<path d="M395.574,146.416c0.555,0.539,0.832,1.331,0.832,2.377c0,1.011-0.245,1.847-0.733,2.506s-1.246,0.989-2.274,0.989
		c-0.857,0-1.538-0.292-2.042-0.875c-0.505-0.584-0.757-1.367-0.757-2.351c0-1.054,0.266-1.893,0.797-2.518
		c0.532-0.624,1.245-0.937,2.142-0.937C394.341,145.608,395.02,145.877,395.574,146.416z M394.919,150.586
		c0.258-0.528,0.386-1.117,0.386-1.765c0-0.585-0.093-1.061-0.278-1.428c-0.293-0.577-0.799-0.866-1.518-0.866
		c-0.638,0-1.102,0.246-1.391,0.737c-0.289,0.492-0.435,1.085-0.435,1.779c0,0.667,0.146,1.223,0.435,1.668
		c0.289,0.444,0.749,0.667,1.379,0.667C394.189,151.379,394.663,151.115,394.919,150.586z"/>
	<path d="M397.614,145.819h1.031v0.832c0.212-0.285,0.442-0.506,0.693-0.662c0.356-0.234,0.775-0.352,1.257-0.352
		c0.713,0,1.318,0.272,1.815,0.817s0.746,1.323,0.746,2.335c0,1.367-0.358,2.344-1.077,2.93c-0.454,0.371-0.984,0.557-1.588,0.557
		c-0.475,0-0.872-0.104-1.193-0.311c-0.188-0.117-0.398-0.318-0.63-0.604v3.205h-1.055V145.819z M401.581,150.738
		c0.328-0.412,0.491-1.028,0.491-1.849c0-0.5-0.072-0.93-0.218-1.289c-0.273-0.691-0.775-1.037-1.505-1.037
		c-0.733,0-1.235,0.365-1.505,1.096c-0.146,0.391-0.218,0.887-0.218,1.488c0,0.484,0.072,0.896,0.218,1.236
		c0.273,0.648,0.775,0.973,1.505,0.973C400.843,151.356,401.254,151.15,401.581,150.738z"/>
	<path d="M407.621,143.428h1.025v3.123c0.231-0.301,0.508-0.53,0.829-0.688c0.322-0.158,0.671-0.237,1.047-0.237
		c0.785,0,1.421,0.269,1.909,0.806s0.732,1.329,0.732,2.376c0,0.992-0.241,1.816-0.724,2.473s-1.15,0.984-2.006,0.984
		c-0.479,0-0.882-0.115-1.211-0.346c-0.197-0.137-0.406-0.355-0.63-0.656v0.803h-0.973V143.428z M411.654,150.653
		c0.285-0.453,0.427-1.051,0.427-1.793c0-0.66-0.142-1.207-0.427-1.641c-0.283-0.434-0.702-0.65-1.255-0.65
		c-0.481,0-0.904,0.178-1.267,0.533c-0.363,0.355-0.544,0.941-0.544,1.758c0,0.59,0.074,1.068,0.224,1.436
		c0.277,0.691,0.797,1.037,1.558,1.037C410.942,151.333,411.37,151.106,411.654,150.653z"/>
	<path d="M414.383,143.458h1.072v1.195h-1.072V143.458z M414.383,145.819h1.072v6.246h-1.072V145.819z"/>
	<path d="M417.26,144.038h1.066v1.752h1.002v0.861h-1.002v4.096c0,0.219,0.074,0.365,0.223,0.439
		c0.082,0.043,0.219,0.064,0.41,0.064c0.051,0,0.105-0.001,0.164-0.004s0.127-0.009,0.205-0.02v0.838
		c-0.121,0.035-0.247,0.061-0.378,0.076s-0.272,0.023-0.425,0.023c-0.492,0-0.826-0.126-1.002-0.378s-0.264-0.579-0.264-0.981
		v-4.154h-0.85v-0.861h0.85V144.038z"/>
</g>
<g enable-background="new    ">
	<path d="M442.124,131.724v-0.809c0.762-0.074,1.293-0.198,1.594-0.372s0.525-0.585,0.674-1.233h0.832v8.355h-1.125v-5.941H442.124z
		"/>
	<path d="M451.634,137.666v-2.051h-3.68v-1.031l3.844-5.332h0.891v5.443h1.236v0.92h-1.236v2.051H451.634z M451.616,134.695v-3.812
		l-2.689,3.812H451.616z"/>
	<path d="M459.925,130.617c0.375,0.691,0.562,1.639,0.562,2.842c0,1.141-0.17,2.084-0.51,2.83c-0.492,1.07-1.297,1.605-2.414,1.605
		c-1.008,0-1.758-0.438-2.25-1.312c-0.41-0.73-0.615-1.711-0.615-2.941c0-0.953,0.123-1.771,0.369-2.455
		c0.461-1.273,1.295-1.91,2.502-1.91C458.656,129.275,459.441,129.722,459.925,130.617z M458.863,136.207
		c0.325-0.484,0.488-1.387,0.488-2.707c0-0.953-0.118-1.737-0.353-2.353c-0.235-0.615-0.69-0.923-1.368-0.923
		c-0.621,0-1.076,0.292-1.363,0.876c-0.289,0.584-0.432,1.444-0.432,2.581c0,0.855,0.092,1.543,0.275,2.062
		c0.281,0.793,0.764,1.189,1.443,1.189C458.103,136.933,458.538,136.691,458.863,136.207z"/>
	<path d="M460.968,133.916h6.768v0.861h-6.768V133.916z"/>
	<path d="M468.493,135.779c0.26-0.535,0.768-1.021,1.521-1.459l1.125-0.65c0.504-0.293,0.857-0.543,1.061-0.751
		c0.32-0.324,0.48-0.696,0.48-1.115c0-0.489-0.146-0.878-0.439-1.165c-0.293-0.288-0.684-0.432-1.172-0.432
		c-0.723,0-1.223,0.274-1.5,0.822c-0.148,0.294-0.23,0.702-0.246,1.223h-1.072c0.012-0.73,0.146-1.326,0.404-1.787
		c0.457-0.812,1.264-1.219,2.42-1.219c0.961,0,1.662,0.26,2.105,0.779s0.666,1.098,0.666,1.734c0,0.672-0.236,1.246-0.709,1.723
		c-0.273,0.277-0.764,0.613-1.471,1.008l-0.803,0.445c-0.383,0.211-0.684,0.412-0.902,0.604c-0.391,0.34-0.637,0.717-0.738,1.131
		h4.582v0.996h-5.76C468.085,136.943,468.234,136.314,468.493,135.779z"/>
	<path d="M479.814,129.969c0.369,0.486,0.555,0.987,0.555,1.503h-1.043c-0.062-0.332-0.162-0.592-0.299-0.779
		c-0.254-0.352-0.639-0.527-1.154-0.527c-0.59,0-1.059,0.272-1.406,0.817s-0.541,1.325-0.58,2.341
		c0.242-0.355,0.547-0.621,0.914-0.797c0.336-0.156,0.711-0.234,1.125-0.234c0.703,0,1.316,0.225,1.84,0.674s0.785,1.119,0.785,2.01
		c0,0.762-0.248,1.437-0.744,2.024s-1.203,0.882-2.121,0.882c-0.785,0-1.463-0.298-2.033-0.894s-0.855-1.599-0.855-3.009
		c0-1.043,0.127-1.928,0.381-2.654c0.488-1.391,1.381-2.086,2.678-2.086C478.792,129.24,479.445,129.483,479.814,129.969z
		 M479.023,136.385c0.275-0.373,0.414-0.813,0.414-1.321c0-0.43-0.123-0.839-0.369-1.228s-0.693-0.583-1.342-0.583
		c-0.453,0-0.852,0.15-1.193,0.451s-0.512,0.754-0.512,1.359c0,0.531,0.154,0.978,0.465,1.339s0.742,0.542,1.293,0.542
		C478.333,136.945,478.747,136.758,479.023,136.385z"/>
	<path d="M486.62,130.617c0.375,0.691,0.562,1.639,0.562,2.842c0,1.141-0.17,2.084-0.51,2.83c-0.492,1.07-1.297,1.605-2.414,1.605
		c-1.008,0-1.758-0.438-2.25-1.312c-0.41-0.73-0.615-1.711-0.615-2.941c0-0.953,0.123-1.771,0.369-2.455
		c0.461-1.273,1.295-1.91,2.502-1.91C485.351,129.275,486.136,129.722,486.62,130.617z M485.558,136.207
		c0.325-0.484,0.488-1.387,0.488-2.707c0-0.953-0.118-1.737-0.353-2.353c-0.235-0.615-0.69-0.923-1.368-0.923
		c-0.621,0-1.076,0.292-1.363,0.876c-0.289,0.584-0.432,1.444-0.432,2.581c0,0.855,0.092,1.543,0.275,2.062
		c0.281,0.793,0.764,1.189,1.443,1.189C484.798,136.933,485.234,136.691,485.558,136.207z"/>
	<path d="M492.105,131.425h1.084v3.674c-0.008,0.543,0.1,0.967,0.322,1.271c0.215,0.32,0.607,0.48,1.178,0.48
		c0.582,0,0.98-0.164,1.195-0.492c0.211-0.305,0.316-0.725,0.316-1.26v-3.674h1.078v4.729c-0.023,0.465,0.109,0.697,0.398,0.697
		c0.109,0,0.221-0.012,0.334-0.035v0.85c-0.105,0.07-0.326,0.109-0.662,0.117c-0.328-0.023-0.564-0.102-0.709-0.234
		c-0.152-0.129-0.271-0.33-0.357-0.604c-0.375,0.543-0.898,0.822-1.57,0.838c-0.578,0-1.078-0.264-1.5-0.791h-0.023v3.023h-1.084
		V131.425z"/>
	<path d="M499.757,135.697c0.031,0.352,0.121,0.621,0.269,0.809c0.271,0.34,0.741,0.51,1.411,0.51c0.398,0,0.75-0.085,1.053-0.255
		s0.455-0.433,0.455-0.788c0-0.27-0.121-0.475-0.363-0.615c-0.155-0.086-0.461-0.186-0.918-0.299l-0.852-0.211
		c-0.543-0.133-0.944-0.281-1.202-0.445c-0.46-0.285-0.69-0.68-0.69-1.184c0-0.594,0.217-1.074,0.65-1.441
		c0.433-0.367,1.016-0.551,1.748-0.551c0.958,0,1.648,0.277,2.072,0.832c0.266,0.352,0.395,0.73,0.387,1.137h-0.996
		c-0.021-0.237-0.106-0.452-0.258-0.646c-0.248-0.276-0.678-0.414-1.29-0.414c-0.408,0-0.717,0.076-0.927,0.228
		c-0.21,0.152-0.314,0.353-0.314,0.602c0,0.272,0.137,0.49,0.414,0.654c0.158,0.097,0.393,0.183,0.703,0.257l0.711,0.17
		c0.771,0.184,1.289,0.361,1.553,0.533c0.41,0.27,0.615,0.693,0.615,1.271c0,0.559-0.215,1.041-0.645,1.447
		c-0.429,0.406-1.082,0.609-1.961,0.609c-0.944,0-1.613-0.212-2.008-0.636c-0.393-0.424-0.604-0.948-0.631-1.573H499.757z"/>
</g>
<g enable-background="new    ">
	<path d="M442.058,150.096c0.031,0.352,0.121,0.621,0.27,0.809c0.271,0.34,0.741,0.51,1.411,0.51c0.398,0,0.749-0.085,1.052-0.255
		c0.304-0.17,0.455-0.433,0.455-0.788c0-0.27-0.121-0.475-0.363-0.615c-0.154-0.086-0.461-0.186-0.917-0.299l-0.852-0.211
		c-0.544-0.133-0.944-0.281-1.202-0.445c-0.461-0.285-0.691-0.68-0.691-1.184c0-0.594,0.217-1.074,0.65-1.441
		s1.016-0.551,1.748-0.551c0.959,0,1.649,0.277,2.072,0.832c0.266,0.352,0.395,0.73,0.387,1.137h-0.996
		c-0.02-0.237-0.105-0.452-0.258-0.646c-0.248-0.276-0.678-0.414-1.289-0.414c-0.408,0-0.717,0.076-0.928,0.228
		c-0.209,0.152-0.314,0.353-0.314,0.602c0,0.272,0.138,0.49,0.414,0.654c0.158,0.097,0.394,0.183,0.704,0.257l0.71,0.17
		c0.772,0.184,1.29,0.361,1.553,0.533c0.41,0.27,0.615,0.693,0.615,1.271c0,0.559-0.215,1.041-0.644,1.447s-1.083,0.609-1.961,0.609
		c-0.944,0-1.614-0.212-2.008-0.636s-0.604-0.948-0.632-1.573H442.058z"/>
	<path d="M447.642,144.038h1.066v1.752h1.002v0.861h-1.002v4.096c0,0.219,0.074,0.365,0.223,0.439
		c0.082,0.043,0.219,0.064,0.41,0.064c0.051,0,0.105-0.001,0.164-0.004s0.127-0.009,0.205-0.02v0.838
		c-0.121,0.035-0.247,0.061-0.378,0.076s-0.272,0.023-0.425,0.023c-0.492,0-0.826-0.126-1.002-0.378s-0.264-0.579-0.264-0.981
		v-4.154h-0.85v-0.861h0.85V144.038z"/>
	<path d="M455.312,146.416c0.555,0.539,0.832,1.331,0.832,2.377c0,1.011-0.244,1.847-0.733,2.506
		c-0.488,0.659-1.247,0.989-2.274,0.989c-0.857,0-1.538-0.292-2.043-0.875c-0.504-0.584-0.756-1.367-0.756-2.351
		c0-1.054,0.266-1.893,0.797-2.518c0.531-0.624,1.245-0.937,2.141-0.937C454.078,145.608,454.757,145.877,455.312,146.416z
		 M454.657,150.586c0.256-0.528,0.385-1.117,0.385-1.765c0-0.585-0.093-1.061-0.278-1.428c-0.294-0.577-0.8-0.866-1.518-0.866
		c-0.638,0-1.101,0.246-1.391,0.737c-0.29,0.492-0.435,1.085-0.435,1.779c0,0.667,0.145,1.223,0.435,1.668
		c0.29,0.444,0.749,0.667,1.379,0.667C453.926,151.379,454.4,151.115,454.657,150.586z"/>
	<path d="M457.351,145.819h1.031v0.832c0.211-0.285,0.442-0.506,0.693-0.662c0.356-0.234,0.775-0.352,1.257-0.352
		c0.713,0,1.317,0.272,1.815,0.817s0.746,1.323,0.746,2.335c0,1.367-0.359,2.344-1.076,2.93c-0.455,0.371-0.984,0.557-1.588,0.557
		c-0.475,0-0.873-0.104-1.195-0.311c-0.188-0.117-0.397-0.318-0.629-0.604v3.205h-1.055V145.819z M461.32,150.738
		c0.326-0.412,0.49-1.028,0.49-1.849c0-0.5-0.072-0.93-0.218-1.289c-0.274-0.691-0.776-1.037-1.505-1.037
		c-0.732,0-1.234,0.365-1.505,1.096c-0.146,0.391-0.218,0.887-0.218,1.488c0,0.484,0.072,0.896,0.218,1.236
		c0.274,0.648,0.776,0.973,1.505,0.973C460.581,151.356,460.991,151.15,461.32,150.738z"/>
	<path d="M463.837,148.18h2.941v1.084h-2.941V148.18z"/>
	<path d="M468.32,144.038h1.066v1.752h1.002v0.861h-1.002v4.096c0,0.219,0.074,0.365,0.223,0.439
		c0.082,0.043,0.219,0.064,0.41,0.064c0.051,0,0.105-0.001,0.164-0.004s0.127-0.009,0.205-0.02v0.838
		c-0.121,0.035-0.247,0.061-0.378,0.076s-0.272,0.023-0.425,0.023c-0.492,0-0.826-0.126-1.002-0.378s-0.264-0.579-0.264-0.981
		v-4.154h-0.85v-0.861h0.85V144.038z"/>
	<path d="M475.99,146.416c0.555,0.539,0.832,1.331,0.832,2.377c0,1.011-0.244,1.847-0.733,2.506
		c-0.488,0.659-1.247,0.989-2.274,0.989c-0.857,0-1.538-0.292-2.043-0.875c-0.504-0.584-0.756-1.367-0.756-2.351
		c0-1.054,0.266-1.893,0.797-2.518c0.531-0.624,1.245-0.937,2.141-0.937C474.756,145.608,475.435,145.877,475.99,146.416z
		 M475.335,150.586c0.256-0.528,0.385-1.117,0.385-1.765c0-0.585-0.093-1.061-0.278-1.428c-0.294-0.577-0.8-0.866-1.518-0.866
		c-0.638,0-1.101,0.246-1.391,0.737c-0.29,0.492-0.435,1.085-0.435,1.779c0,0.667,0.145,1.223,0.435,1.668
		c0.29,0.444,0.749,0.667,1.379,0.667C474.604,151.379,475.077,151.115,475.335,150.586z"/>
	<path d="M477.841,148.18h2.941v1.084h-2.941V148.18z"/>
	<path d="M482.74,150.096c0.031,0.352,0.121,0.621,0.27,0.809c0.271,0.34,0.741,0.51,1.411,0.51c0.398,0,0.749-0.085,1.052-0.255
		c0.304-0.17,0.455-0.433,0.455-0.788c0-0.27-0.121-0.475-0.363-0.615c-0.154-0.086-0.461-0.186-0.917-0.299l-0.852-0.211
		c-0.544-0.133-0.944-0.281-1.202-0.445c-0.461-0.285-0.691-0.68-0.691-1.184c0-0.594,0.217-1.074,0.65-1.441
		s1.016-0.551,1.748-0.551c0.959,0,1.649,0.277,2.072,0.832c0.266,0.352,0.395,0.73,0.387,1.137h-0.996
		c-0.02-0.237-0.105-0.452-0.258-0.646c-0.248-0.276-0.678-0.414-1.289-0.414c-0.408,0-0.717,0.076-0.928,0.228
		c-0.209,0.152-0.314,0.353-0.314,0.602c0,0.272,0.138,0.49,0.414,0.654c0.158,0.097,0.394,0.183,0.704,0.257l0.71,0.17
		c0.772,0.184,1.29,0.361,1.553,0.533c0.41,0.27,0.615,0.693,0.615,1.271c0,0.559-0.215,1.041-0.644,1.447s-1.083,0.609-1.961,0.609
		c-0.944,0-1.614-0.212-2.008-0.636s-0.604-0.948-0.632-1.573H482.74z"/>
	<path d="M488.323,144.038h1.066v1.752h1.002v0.861h-1.002v4.096c0,0.219,0.074,0.365,0.223,0.439
		c0.082,0.043,0.219,0.064,0.41,0.064c0.051,0,0.105-0.001,0.164-0.004s0.127-0.009,0.205-0.02v0.838
		c-0.121,0.035-0.247,0.061-0.378,0.076s-0.272,0.023-0.425,0.023c-0.492,0-0.826-0.126-1.002-0.378s-0.264-0.579-0.264-0.981
		v-4.154h-0.85v-0.861h0.85V144.038z"/>
	<path d="M494.81,148.267c0.242-0.031,0.404-0.133,0.486-0.304c0.047-0.095,0.07-0.229,0.07-0.406c0-0.36-0.128-0.622-0.383-0.785
		c-0.256-0.163-0.621-0.244-1.097-0.244c-0.55,0-0.939,0.149-1.169,0.447c-0.129,0.165-0.213,0.41-0.252,0.736h-0.984
		c0.02-0.775,0.27-1.315,0.752-1.619s1.041-0.455,1.677-0.455c0.737,0,1.337,0.141,1.797,0.422c0.456,0.281,0.685,0.719,0.685,1.312
		v3.615c0,0.109,0.022,0.197,0.067,0.264s0.14,0.1,0.284,0.1c0.047,0,0.1-0.003,0.158-0.009s0.121-0.015,0.188-0.026v0.779
		c-0.164,0.047-0.289,0.076-0.375,0.088s-0.203,0.018-0.352,0.018c-0.363,0-0.627-0.129-0.791-0.387
		c-0.086-0.137-0.146-0.33-0.182-0.58c-0.215,0.281-0.523,0.525-0.926,0.732s-0.846,0.311-1.33,0.311
		c-0.582,0-1.058-0.177-1.427-0.529c-0.369-0.354-0.554-0.795-0.554-1.326c0-0.581,0.182-1.031,0.545-1.352
		c0.363-0.319,0.84-0.517,1.43-0.591L494.81,148.267z M492.589,151.117c0.223,0.175,0.486,0.263,0.791,0.263
		c0.371,0,0.73-0.086,1.078-0.258c0.586-0.284,0.879-0.75,0.879-1.397v-0.849c-0.129,0.082-0.295,0.151-0.497,0.206
		s-0.401,0.094-0.597,0.117l-0.637,0.082c-0.383,0.051-0.67,0.131-0.862,0.239c-0.326,0.184-0.489,0.476-0.489,0.877
		C492.255,150.702,492.366,150.941,492.589,151.117z"/>
	<path d="M498.15,145.79h1.002v1.084c0.082-0.211,0.283-0.468,0.604-0.771s0.689-0.454,1.107-0.454c0.02,0,0.053,0.002,0.1,0.006
		s0.127,0.012,0.24,0.023v1.113c-0.062-0.012-0.12-0.02-0.173-0.023s-0.11-0.006-0.173-0.006c-0.531,0-0.939,0.171-1.225,0.513
		s-0.428,0.735-0.428,1.181v3.609h-1.055V145.79z"/>
	<path d="M502.327,144.038h1.066v1.752h1.002v0.861h-1.002v4.096c0,0.219,0.074,0.365,0.223,0.439
		c0.082,0.043,0.219,0.064,0.41,0.064c0.051,0,0.105-0.001,0.164-0.004s0.127-0.009,0.205-0.02v0.838
		c-0.121,0.035-0.247,0.061-0.378,0.076s-0.272,0.023-0.425,0.023c-0.492,0-0.826-0.126-1.002-0.378s-0.264-0.579-0.264-0.981
		v-4.154h-0.85v-0.861h0.85V144.038z"/>
</g>
<g>
	<g>
		<path d="M275.418,55.5c3.224,0,3.224-5,0-5C272.194,50.5,272.194,55.5,275.418,55.5L275.418,55.5z"/>
	</g>
</g>
<g>
	<g>
		<path d="M297.418,55.5c3.224,0,3.224-5,0-5C294.194,50.5,294.194,55.5,297.418,55.5L297.418,55.5z"/>
	</g>
</g>
<g>
	<g>
		<path d="M297.418,55.5c3.224,0,3.224-5,0-5C294.194,50.5,294.194,55.5,297.418,55.5L297.418,55.5z"/>
	</g>
</g>
<g>
	<g>
		<path d="M319.418,55.5c3.225,0,3.225-5,0-5C316.193,50.5,316.194,55.5,319.418,55.5L319.418,55.5z"/>
	</g>
</g>
</svg>
