<?xml version="1.0" encoding="utf-8"?>
<!-- Generator: Adobe Illustrator 16.0.4, SVG Export Plug-In . SVG Version: 6.00 Build 0)  -->
<!DOCTYPE svg PUBLIC "-//W3C//DTD SVG 1.1//EN" "http://www.w3.org/Graphics/SVG/1.1/DTD/svg11.dtd">
<svg version="1.1" id="Warstwa_1" xmlns="http://www.w3.org/2000/svg" xmlns:xlink="http://www.w3.org/1999/xlink" x="0px" y="0px"
	 width="665.833px" height="165.333px" viewBox="0 0 665.833 165.333" enable-background="new 0 0 665.833 165.333"
	 xml:space="preserve">
<line fill="none" stroke="#000000" stroke-miterlimit="10" x1="38.63" y1="10.329" x2="38.63" y2="95.663"/>
<line fill="none" stroke="#000000" stroke-miterlimit="10" x1="38.63" y1="95.663" x2="185.799" y2="95.663"/>
<line fill="none" stroke="#000000" stroke-miterlimit="10" x1="185.798" y1="95.663" x2="185.798" y2="10.33"/>
<line fill="none" stroke="#000000" stroke-miterlimit="10" x1="185.794" y1="10.33" x2="236.103" y2="10.331"/>
<line fill="none" stroke="#000000" stroke-miterlimit="10" x1="10.465" y1="10.329" x2="38.63" y2="10.329"/>
<line fill="none" stroke="#000000" stroke-miterlimit="10" x1="38.63" y1="112.329" x2="38.63" y2="128.329"/>
<g>
	<g>
		<line fill="none" stroke="#000000" stroke-miterlimit="10" x1="39.715" y1="120.329" x2="184.714" y2="120.331"/>
		<g>
			<polygon points="43.028,124.418 43.71,123.686 40.099,120.331 43.71,116.972 43.028,116.241 38.63,120.331 			"/>
		</g>
		<g>
			<polygon points="181.4,124.418 180.718,123.687 184.33,120.331 180.718,116.973 181.4,116.241 185.798,120.331 			"/>
		</g>
	</g>
</g>
<line fill="none" stroke="#000000" stroke-miterlimit="10" x1="185.798" y1="112.331" x2="185.798" y2="128.331"/>
<g>
	<g>
		<line fill="none" stroke="#000000" stroke-miterlimit="10" x1="186.878" y1="120.331" x2="235.019" y2="120.331"/>
		<g>
			<polygon points="190.192,124.42 190.874,123.688 187.262,120.331 190.874,116.974 190.192,116.241 185.794,120.331 			"/>
		</g>
		<g>
			<polygon points="231.705,124.42 231.023,123.688 234.634,120.333 231.023,116.974 231.706,116.243 236.103,120.333 			"/>
		</g>
	</g>
</g>
<line fill="none" stroke="#000000" stroke-miterlimit="10" x1="236.103" y1="112.331" x2="236.103" y2="128.331"/>
<g>
	<g>
		<line fill="none" stroke="#000000" stroke-miterlimit="10" x1="237.187" y1="120.329" x2="357.65" y2="120.331"/>
		<g>
			<polygon points="240.5,124.418 241.183,123.686 237.572,120.329 241.183,116.972 240.501,116.239 236.103,120.329 			"/>
		</g>
		<g>
			<polygon points="354.335,124.42 353.654,123.688 357.265,120.333 353.654,116.974 354.336,116.243 358.734,120.333 			"/>
		</g>
	</g>
</g>
<line fill="none" stroke="#000000" stroke-miterlimit="10" x1="358.734" y1="103.167" x2="358.734" y2="128.331"/>
<g>
	<g>
		<line fill="none" stroke="#000000" stroke-miterlimit="10" x1="359.822" y1="109.92" x2="562.084" y2="109.922"/>
		<g>
			<polygon points="363.134,114.01 363.817,113.278 360.204,109.92 363.817,106.564 363.135,105.831 358.737,109.92 			"/>
		</g>
		<g>
			<polygon points="558.769,114.012 558.087,113.28 561.698,109.924 558.087,106.566 558.77,105.834 563.166,109.924 			"/>
		</g>
	</g>
</g>
<g>
	<g>
		<line fill="none" stroke="#000000" stroke-miterlimit="10" x1="359.823" y1="120.331" x2="426.253" y2="120.333"/>
		<g>
			<polygon points="363.135,124.42 363.818,123.688 360.205,120.331 363.818,116.974 363.136,116.241 358.738,120.331 			"/>
		</g>
		<g>
			<polygon points="422.938,124.422 422.256,123.69 425.867,120.334 422.256,116.976 422.939,116.245 427.335,120.334 			"/>
		</g>
	</g>
</g>
<line fill="none" stroke="#000000" stroke-miterlimit="10" x1="563.164" y1="103.167" x2="563.164" y2="128.331"/>
<path fill="none" stroke="#000000" stroke-miterlimit="10" d="M563.166,103.663"/>
<g>
	<g>
		<line fill="none" stroke="#000000" stroke-miterlimit="10" x1="564.25" y1="117.925" x2="652.75" y2="117.921"/>
		<g>
			<polygon points="567.566,122.015 568.247,121.283 564.636,117.925 568.247,114.569 567.565,113.835 563.166,117.925 			"/>
		</g>
		<g>
			<polygon points="649.437,122.011 648.754,121.279 652.366,117.921 648.754,114.564 649.436,113.832 653.834,117.921 			"/>
		</g>
	</g>
</g>
<line fill="none" stroke="#000000" stroke-miterlimit="10" x1="653.834" y1="109.921" x2="653.834" y2="125.921"/>
<text transform="matrix(1 0 0 1 93.8713 137.6646)" font-family="'Helvetica'" font-size="12">800 μs</text>
<text transform="matrix(1 0 0 1 89.1956 152.0649)" font-family="'Helvetica'" font-size="12">attention</text>
<line fill="none" stroke="#000000" stroke-miterlimit="10" x1="236.103" y1="10.331" x2="236.103" y2="95.665"/>
<line fill="none" stroke="#000000" stroke-miterlimit="10" x1="358.734" y1="10.332" x2="358.734" y2="95.665"/>
<line fill="none" stroke="#000000" stroke-miterlimit="10" x1="563.166" y1="10.334" x2="563.166" y2="95.667"/>
<line fill="none" stroke="#000000" stroke-miterlimit="10" x1="358.734" y1="95.665" x2="401.339" y2="95.667"/>
<g>
	<g>
		<line fill="none" stroke="#000000" stroke-miterlimit="10" x1="426.253" y1="128.331" x2="426.276" y2="125.831"/>
		
			<line fill="none" stroke="#000000" stroke-miterlimit="10" stroke-dasharray="4.9133,4.9133" x1="426.321" y1="120.917" x2="427.287" y2="15.286"/>
		<line fill="none" stroke="#000000" stroke-miterlimit="10" x1="427.31" y1="12.829" x2="427.332" y2="10.329"/>
	</g>
</g>
<line fill="none" stroke="#000000" stroke-miterlimit="10" x1="563.166" y1="10.334" x2="653.834" y2="10.334"/>
<text transform="matrix(1 0 0 1 195.9426 137.6646)" font-family="'Helvetica'" font-size="12">70 μs</text>
<text transform="matrix(1 0 0 1 198.6116 152.0649)" font-family="'Helvetica'" font-size="12">sync</text>
<text transform="matrix(1 0 0 1 279.0754 137.6646)" font-family="'Helvetica'" font-size="12">800 μs</text>
<text transform="matrix(1 0 0 1 260.0706 152.0649)" font-family="'Helvetica'" font-size="12">command bits</text>
<text transform="matrix(1 0 0 1 576.8098 135.2612)" font-family="'Helvetica'" font-size="12">140–260 μs</text>
<text transform="matrix(1 0 0 1 576.4915 149.6616)" font-family="'Helvetica'" font-size="12">stop-to-start</text>
<g>
	<g>
		<path d="M275.418,55.5c3.224,0,3.224-5,0-5C272.194,50.5,272.194,55.5,275.418,55.5L275.418,55.5z"/>
	</g>
</g>
<g>
	<g>
		<path d="M297.418,55.5c3.224,0,3.224-5,0-5C294.194,50.5,294.194,55.5,297.418,55.5L297.418,55.5z"/>
	</g>
</g>
<g>
	<g>
		<path d="M297.418,55.5c3.224,0,3.224-5,0-5C294.194,50.5,294.194,55.5,297.418,55.5L297.418,55.5z"/>
	</g>
</g>
<g>
	<g>
		<path d="M319.418,55.5c3.225,0,3.225-5,0-5C316.193,50.5,316.194,55.5,319.418,55.5L319.418,55.5z"/>
	</g>
</g>
<text transform="matrix(1 0 0 1 374.6926 137.6646)"><tspan x="0" y="0" font-family="'Helvetica'" font-size="12">100 μs</tspan><tspan x="-1.002" y="14.4" font-family="'Helvetica'" font-size="12">stop bit</tspan></text>
<line fill="none" stroke="#000000" stroke-miterlimit="10" x1="401.339" y1="95.667" x2="563.166" y2="95.667"/>
<text transform="matrix(1 0 0 1 463.9094 137.6646)"><tspan x="0" y="0" font-family="'Helvetica'" font-size="12">300 μs</tspan><tspan x="-22.342" y="14.4" font-family="'Helvetica'" font-size="12">service request</tspan></text>
</svg>
