<?xml version="1.0" encoding="utf-8"?>
<!-- Generator: Adobe Illustrator 16.0.4, SVG Export Plug-In . SVG Version: 6.00 Build 0)  -->
<!DOCTYPE svg PUBLIC "-//W3C//DTD SVG 1.1//EN" "http://www.w3.org/Graphics/SVG/1.1/DTD/svg11.dtd">
<svg version="1.1" id="Warstwa_1" xmlns="http://www.w3.org/2000/svg" xmlns:xlink="http://www.w3.org/1999/xlink" x="0px" y="0px"
	 width="530.666px" height="165.333px" viewBox="0 0 530.666 165.333" enable-background="new 0 0 530.666 165.333"
	 xml:space="preserve">
<line fill="none" stroke="#000000" stroke-miterlimit="10" x1="38.63" y1="10.329" x2="38.63" y2="95.663"/>
<line fill="none" stroke="#000000" stroke-miterlimit="10" x1="38.63" y1="95.663" x2="185.799" y2="95.663"/>
<line fill="none" stroke="#000000" stroke-miterlimit="10" x1="185.798" y1="95.663" x2="185.798" y2="10.33"/>
<line fill="none" stroke="#000000" stroke-miterlimit="10" x1="185.794" y1="10.33" x2="236.103" y2="10.331"/>
<line fill="none" stroke="#000000" stroke-miterlimit="10" x1="10.465" y1="10.329" x2="38.63" y2="10.329"/>
<line fill="none" stroke="#000000" stroke-miterlimit="10" x1="38.63" y1="112.329" x2="38.63" y2="128.329"/>
<g>
	<g>
		<line fill="none" stroke="#000000" stroke-miterlimit="10" x1="39.715" y1="120.329" x2="184.714" y2="120.331"/>
		<g>
			<polygon points="43.028,124.418 43.71,123.686 40.099,120.331 43.71,116.972 43.028,116.241 38.63,120.331 			"/>
		</g>
		<g>
			<polygon points="181.4,124.418 180.718,123.687 184.33,120.331 180.718,116.973 181.4,116.241 185.798,120.331 			"/>
		</g>
	</g>
</g>
<line fill="none" stroke="#000000" stroke-miterlimit="10" x1="185.798" y1="112.331" x2="185.798" y2="128.331"/>
<g>
	<g>
		<line fill="none" stroke="#000000" stroke-miterlimit="10" x1="186.878" y1="120.331" x2="235.019" y2="120.331"/>
		<g>
			<polygon points="190.192,124.42 190.874,123.688 187.262,120.331 190.874,116.974 190.192,116.241 185.794,120.331 			"/>
		</g>
		<g>
			<polygon points="231.705,124.42 231.023,123.688 234.634,120.333 231.023,116.974 231.706,116.243 236.103,120.333 			"/>
		</g>
	</g>
</g>
<line fill="none" stroke="#000000" stroke-miterlimit="10" x1="236.103" y1="112.331" x2="236.103" y2="128.331"/>
<g>
	<g>
		<line fill="none" stroke="#000000" stroke-miterlimit="10" x1="237.187" y1="120.329" x2="357.65" y2="120.331"/>
		<g>
			<polygon points="240.5,124.418 241.183,123.686 237.572,120.329 241.183,116.972 240.501,116.239 236.103,120.329 			"/>
		</g>
		<g>
			<polygon points="354.335,124.42 353.654,123.688 357.265,120.333 353.654,116.974 354.336,116.243 358.734,120.333 			"/>
		</g>
	</g>
</g>
<line fill="none" stroke="#000000" stroke-miterlimit="10" x1="358.734" y1="112.331" x2="358.734" y2="128.331"/>
<g>
	<g>
		<line fill="none" stroke="#000000" stroke-miterlimit="10" x1="359.82" y1="120.329" x2="426.25" y2="120.331"/>
		<g>
			<polygon points="363.132,124.418 363.815,123.686 360.202,120.329 363.815,116.972 363.133,116.239 358.735,120.329 			"/>
		</g>
		<g>
			<polygon points="422.935,124.42 422.253,123.688 425.865,120.333 422.253,116.974 422.936,116.243 427.332,120.333 			"/>
		</g>
	</g>
</g>
<line fill="none" stroke="#000000" stroke-miterlimit="10" x1="427.332" y1="112.331" x2="427.332" y2="128.331"/>
<g>
	<g>
		<line fill="none" stroke="#000000" stroke-miterlimit="10" x1="428.416" y1="120.329" x2="516.916" y2="120.325"/>
		<g>
			<polygon points="431.732,124.418 432.413,123.686 428.802,120.329 432.413,116.972 431.731,116.239 427.332,120.329 			"/>
		</g>
		<g>
			<polygon points="513.603,124.415 512.92,123.682 516.532,120.325 512.92,116.967 513.602,116.235 518,120.325 			"/>
		</g>
	</g>
</g>
<line fill="none" stroke="#000000" stroke-miterlimit="10" x1="518" y1="112.325" x2="518" y2="128.325"/>
<text transform="matrix(1 0 0 1 93.8713 137.6646)" font-family="'Helvetica'" font-size="12">800 μs</text>
<text transform="matrix(1 0 0 1 89.1956 152.0649)" font-family="'Helvetica'" font-size="12">attention</text>
<line fill="none" stroke="#000000" stroke-miterlimit="10" x1="236.103" y1="10.331" x2="236.103" y2="95.665"/>
<line fill="none" stroke="#000000" stroke-miterlimit="10" x1="358.734" y1="10.332" x2="358.734" y2="95.665"/>
<line fill="none" stroke="#000000" stroke-miterlimit="10" x1="358.734" y1="95.665" x2="401.339" y2="95.667"/>
<line fill="none" stroke="#000000" stroke-miterlimit="10" x1="401.337" y1="95.667" x2="401.337" y2="10.333"/>
<g>
	<g>
		<line fill="none" stroke="#000000" stroke-miterlimit="10" x1="427.332" y1="95.667" x2="427.332" y2="93.167"/>
		
			<line fill="none" stroke="#000000" stroke-miterlimit="10" stroke-dasharray="4.7257,4.7257" x1="427.332" y1="88.441" x2="427.332" y2="15.192"/>
		<line fill="none" stroke="#000000" stroke-miterlimit="10" x1="427.332" y1="12.829" x2="427.332" y2="10.329"/>
	</g>
</g>
<line fill="none" stroke="#000000" stroke-miterlimit="10" x1="401.332" y1="10.333" x2="518" y2="10.333"/>
<text transform="matrix(1 0 0 1 195.9426 137.6646)" font-family="'Helvetica'" font-size="12">70 μs</text>
<text transform="matrix(1 0 0 1 198.6116 152.0649)" font-family="'Helvetica'" font-size="12">sync</text>
<text transform="matrix(1 0 0 1 279.0754 137.6646)" font-family="'Helvetica'" font-size="12">800 μs</text>
<text transform="matrix(1 0 0 1 260.0706 152.0649)" font-family="'Helvetica'" font-size="12">command bits</text>
<text transform="matrix(1 0 0 1 374.6917 137.6646)" font-family="'Helvetica'" font-size="12">100 μs</text>
<text transform="matrix(1 0 0 1 366.0198 152.0649)" font-family="'Helvetica'" font-size="12">‘0’ stop bit</text>
<text transform="matrix(1 0 0 1 440.9758 137.6646)" font-family="'Helvetica'" font-size="12">140–260 μs</text>
<text transform="matrix(1 0 0 1 440.6575 152.0649)" font-family="'Helvetica'" font-size="12">stop-to-start</text>
<g>
	<g>
		<path d="M275.418,55.5c3.224,0,3.224-5,0-5C272.194,50.5,272.194,55.5,275.418,55.5L275.418,55.5z"/>
	</g>
</g>
<g>
	<g>
		<path d="M297.418,55.5c3.224,0,3.224-5,0-5C294.194,50.5,294.194,55.5,297.418,55.5L297.418,55.5z"/>
	</g>
</g>
<g>
	<g>
		<path d="M297.418,55.5c3.224,0,3.224-5,0-5C294.194,50.5,294.194,55.5,297.418,55.5L297.418,55.5z"/>
	</g>
</g>
<g>
	<g>
		<path d="M319.418,55.5c3.225,0,3.225-5,0-5C316.193,50.5,316.194,55.5,319.418,55.5L319.418,55.5z"/>
	</g>
</g>
</svg>
