<?xml version="1.0" encoding="utf-8"?>
<!-- Generator: Adobe Illustrator 16.0.4, SVG Export Plug-In . SVG Version: 6.00 Build 0)  -->
<!DOCTYPE svg PUBLIC "-//W3C//DTD SVG 1.1//EN" "http://www.w3.org/Graphics/SVG/1.1/DTD/svg11.dtd">
<svg version="1.1" id="Warstwa_1" xmlns="http://www.w3.org/2000/svg" xmlns:xlink="http://www.w3.org/1999/xlink" x="0px" y="0px"
	 width="307.332px" height="165.333px" viewBox="0 0 307.332 165.333" enable-background="new 0 0 307.332 165.333"
	 xml:space="preserve">
<line fill="none" stroke="#000000" stroke-miterlimit="10" x1="38.63" y1="10.329" x2="38.63" y2="95.663"/>
<line fill="none" stroke="#000000" stroke-miterlimit="10" x1="38.63" y1="95.663" x2="240.183" y2="95.663"/>
<line fill="none" stroke="#000000" stroke-miterlimit="10" x1="240.183" y1="95.663" x2="240.183" y2="10.329"/>
<line fill="none" stroke="#000000" stroke-miterlimit="10" x1="240.179" y1="10.329" x2="290.488" y2="10.33"/>
<line fill="none" stroke="#000000" stroke-miterlimit="10" x1="10.465" y1="10.329" x2="38.63" y2="10.329"/>
<line fill="none" stroke="#000000" stroke-miterlimit="10" x1="38.63" y1="112.329" x2="38.63" y2="128.329"/>
<g>
	<g>
		<line fill="none" stroke="#000000" stroke-miterlimit="10" x1="39.715" y1="120.329" x2="239.099" y2="120.329"/>
		<g>
			<polygon points="43.028,124.418 43.71,123.686 40.099,120.331 43.71,116.972 43.028,116.241 38.63,120.331 			"/>
		</g>
		<g>
			<polygon points="235.785,124.418 235.103,123.686 238.714,120.331 235.103,116.972 235.785,116.241 240.183,120.331 			"/>
		</g>
	</g>
</g>
<line fill="none" stroke="#000000" stroke-miterlimit="10" x1="240.183" y1="112.329" x2="240.183" y2="128.329"/>
<g enable-background="new    ">
	<path d="M129.815,135.101l-6.75,2.675v-1.059l5.514-2.117l-5.514-2.111v-1.059l6.75,2.681V135.101z"/>
	<path d="M130.866,137.076c-0.447-0.545-0.671-1.208-0.671-1.989h1.102c0.047,0.543,0.148,0.938,0.305,1.184
		c0.273,0.441,0.768,0.662,1.482,0.662c0.555,0,1-0.148,1.336-0.445s0.504-0.68,0.504-1.148c0-0.578-0.177-0.982-0.53-1.213
		s-0.845-0.346-1.474-0.346c-0.07,0-0.142,0.001-0.214,0.003s-0.146,0.005-0.22,0.009v-0.932c0.109,0.012,0.201,0.02,0.275,0.023
		s0.154,0.006,0.24,0.006c0.395,0,0.719-0.062,0.973-0.188c0.445-0.219,0.668-0.609,0.668-1.172c0-0.418-0.148-0.74-0.445-0.967
		s-0.643-0.34-1.037-0.34c-0.703,0-1.189,0.234-1.459,0.703c-0.148,0.258-0.232,0.625-0.252,1.102h-1.043
		c0-0.625,0.125-1.156,0.375-1.594c0.43-0.781,1.186-1.172,2.268-1.172c0.855,0,1.518,0.19,1.986,0.571s0.703,0.933,0.703,1.655
		c0,0.516-0.139,0.934-0.416,1.254c-0.172,0.199-0.395,0.355-0.668,0.469c0.441,0.121,0.786,0.354,1.034,0.7
		s0.372,0.769,0.372,1.269c0,0.801-0.264,1.453-0.791,1.957s-1.275,0.756-2.244,0.756
		C132.033,137.893,131.314,137.621,130.866,137.076z"/>
	<path d="M140.69,131.389h1.043v0.891c0.25-0.309,0.477-0.533,0.68-0.674c0.348-0.238,0.742-0.357,1.184-0.357
		c0.5,0,0.902,0.123,1.207,0.369c0.172,0.141,0.328,0.348,0.469,0.621c0.234-0.336,0.51-0.585,0.826-0.747s0.672-0.243,1.066-0.243
		c0.844,0,1.418,0.305,1.723,0.914c0.164,0.328,0.246,0.77,0.246,1.324v4.178h-1.096v-4.359c0-0.418-0.104-0.705-0.313-0.861
		s-0.464-0.234-0.765-0.234c-0.414,0-0.771,0.139-1.069,0.416s-0.448,0.74-0.448,1.389v3.65h-1.072v-4.096
		c0-0.426-0.051-0.736-0.152-0.932c-0.16-0.293-0.459-0.439-0.896-0.439c-0.398,0-0.761,0.154-1.087,0.463s-0.489,0.867-0.489,1.676
		v3.328h-1.055V131.389z"/>
	<path d="M151.313,135.696c0.032,0.352,0.122,0.621,0.269,0.809c0.271,0.34,0.742,0.51,1.412,0.51c0.398,0,0.749-0.085,1.052-0.255
		s0.455-0.433,0.455-0.788c0-0.27-0.121-0.475-0.363-0.615c-0.155-0.086-0.46-0.186-0.917-0.299l-0.852-0.211
		c-0.544-0.133-0.945-0.281-1.203-0.445c-0.46-0.285-0.691-0.68-0.691-1.184c0-0.594,0.217-1.074,0.65-1.441
		c0.433-0.367,1.016-0.551,1.749-0.551c0.958,0,1.649,0.277,2.072,0.832c0.266,0.352,0.395,0.73,0.387,1.137h-0.996
		c-0.02-0.237-0.105-0.452-0.258-0.646c-0.248-0.276-0.678-0.414-1.29-0.414c-0.408,0-0.717,0.076-0.927,0.228
		c-0.21,0.152-0.315,0.353-0.315,0.602c0,0.272,0.138,0.49,0.414,0.654c0.159,0.097,0.394,0.183,0.704,0.257l0.71,0.17
		c0.772,0.184,1.29,0.361,1.552,0.533c0.41,0.27,0.615,0.693,0.615,1.271c0,0.559-0.215,1.041-0.644,1.447s-1.083,0.609-1.961,0.609
		c-0.945,0-1.614-0.212-2.008-0.636s-0.604-0.948-0.632-1.573H151.313z"/>
</g>
<g enable-background="new    ">
	<path d="M126.87,145.79h1.002v1.084c0.082-0.211,0.283-0.468,0.604-0.771s0.689-0.454,1.107-0.454c0.02,0,0.053,0.002,0.1,0.006
		s0.127,0.012,0.24,0.023v1.113c-0.062-0.012-0.12-0.02-0.173-0.023s-0.11-0.006-0.173-0.006c-0.531,0-0.939,0.171-1.225,0.513
		s-0.428,0.735-0.428,1.181v3.609h-1.055V145.79z"/>
	<path d="M134.713,145.962c0.416,0.209,0.732,0.479,0.949,0.812c0.21,0.316,0.35,0.686,0.419,1.107
		c0.062,0.289,0.093,0.75,0.093,1.383h-4.564c0.02,0.639,0.168,1.15,0.448,1.536c0.279,0.386,0.711,0.579,1.296,0.579
		c0.546,0,0.982-0.183,1.308-0.548c0.182-0.211,0.311-0.457,0.387-0.735h1.037c-0.027,0.23-0.118,0.487-0.272,0.771
		s-0.327,0.515-0.517,0.694c-0.318,0.312-0.711,0.523-1.18,0.633c-0.252,0.062-0.537,0.094-0.855,0.094
		c-0.776,0-1.434-0.284-1.974-0.853c-0.54-0.568-0.81-1.364-0.81-2.388c0-1.008,0.271-1.826,0.815-2.455
		c0.543-0.629,1.254-0.943,2.131-0.943C133.869,145.649,134.298,145.753,134.713,145.962z M135.091,148.426
		c-0.042-0.457-0.142-0.822-0.296-1.096c-0.287-0.508-0.765-0.762-1.435-0.762c-0.48,0-0.883,0.175-1.208,0.524
		s-0.498,0.794-0.517,1.333H135.091z"/>
	<path d="M138.138,150.096c0.032,0.352,0.122,0.621,0.269,0.809c0.271,0.34,0.742,0.51,1.412,0.51c0.398,0,0.749-0.085,1.052-0.255
		s0.455-0.433,0.455-0.788c0-0.27-0.121-0.475-0.363-0.615c-0.155-0.086-0.46-0.186-0.917-0.299l-0.852-0.211
		c-0.544-0.133-0.945-0.281-1.203-0.445c-0.46-0.285-0.691-0.68-0.691-1.184c0-0.594,0.217-1.074,0.65-1.441
		c0.433-0.367,1.016-0.551,1.749-0.551c0.958,0,1.649,0.277,2.072,0.832c0.265,0.352,0.394,0.73,0.386,1.137h-0.996
		c-0.02-0.237-0.106-0.452-0.258-0.646c-0.248-0.276-0.678-0.414-1.29-0.414c-0.408,0-0.717,0.076-0.927,0.228
		c-0.21,0.152-0.315,0.353-0.315,0.602c0,0.272,0.138,0.49,0.414,0.654c0.159,0.097,0.394,0.183,0.704,0.257l0.71,0.17
		c0.772,0.184,1.29,0.361,1.552,0.533c0.41,0.27,0.615,0.693,0.615,1.271c0,0.559-0.215,1.041-0.644,1.447
		c-0.429,0.406-1.083,0.609-1.961,0.609c-0.945,0-1.614-0.212-2.008-0.636s-0.604-0.948-0.632-1.573H138.138z"/>
	<path d="M147.387,145.962c0.416,0.209,0.732,0.479,0.949,0.812c0.21,0.316,0.35,0.686,0.419,1.107
		c0.062,0.289,0.093,0.75,0.093,1.383h-4.564c0.02,0.639,0.168,1.15,0.448,1.536c0.279,0.386,0.711,0.579,1.296,0.579
		c0.546,0,0.982-0.183,1.308-0.548c0.182-0.211,0.311-0.457,0.387-0.735h1.037c-0.027,0.23-0.118,0.487-0.272,0.771
		s-0.327,0.515-0.517,0.694c-0.318,0.312-0.711,0.523-1.18,0.633c-0.252,0.062-0.537,0.094-0.855,0.094
		c-0.776,0-1.434-0.284-1.974-0.853c-0.54-0.568-0.81-1.364-0.81-2.388c0-1.008,0.271-1.826,0.815-2.455
		c0.543-0.629,1.254-0.943,2.131-0.943C146.543,145.649,146.972,145.753,147.387,145.962z M147.765,148.426
		c-0.042-0.457-0.142-0.822-0.296-1.096c-0.287-0.508-0.765-0.762-1.435-0.762c-0.48,0-0.883,0.175-1.208,0.524
		s-0.498,0.794-0.517,1.333H147.765z"/>
	<path d="M150.396,144.038h1.066v1.752h1.002v0.861h-1.002v4.096c0,0.219,0.074,0.365,0.223,0.439
		c0.082,0.043,0.219,0.064,0.41,0.064c0.051,0,0.105-0.001,0.164-0.004s0.127-0.009,0.205-0.02v0.838
		c-0.121,0.035-0.247,0.061-0.378,0.076s-0.272,0.023-0.425,0.023c-0.492,0-0.826-0.126-1.002-0.378s-0.264-0.579-0.264-0.981
		v-4.154h-0.85v-0.861h0.85V144.038z"/>
</g>
</svg>
