<?xml version="1.0" encoding="utf-8"?>
<!-- Generator: Adobe Illustrator 16.0.4, SVG Export Plug-In . SVG Version: 6.00 Build 0)  -->
<!DOCTYPE svg PUBLIC "-//W3C//DTD SVG 1.1//EN" "http://www.w3.org/Graphics/SVG/1.1/DTD/svg11.dtd">
<svg version="1.1" id="Warstwa_1" xmlns="http://www.w3.org/2000/svg" xmlns:xlink="http://www.w3.org/1999/xlink" x="0px" y="0px"
	 width="307.333px" height="165.333px" viewBox="0 0 307.333 165.333" enable-background="new 0 0 307.333 165.333"
	 xml:space="preserve">
<line fill="none" stroke="#000000" stroke-miterlimit="10" x1="38.63" y1="10.329" x2="38.63" y2="95.662"/>
<line fill="none" stroke="#000000" stroke-width="1" stroke-miterlimit="10" x1="38.63" y1="95.662" x2="240.183" y2="95.662"/>
<line fill="none" stroke="#000000" stroke-miterlimit="10" x1="240.183" y1="95.662" x2="240.183" y2="10.329"/>
<line fill="none" stroke="#000000" stroke-miterlimit="10" x1="240.179" y1="10.329" x2="290.488" y2="10.33"/>
<line fill="none" stroke="#000000" stroke-miterlimit="10" x1="10.465" y1="10.329" x2="38.63" y2="10.329"/>
<line fill="none" stroke="#000000" stroke-miterlimit="10" x1="38.63" y1="112.329" x2="38.63" y2="128.329"/>
<g>
	<g>
		<line fill="none" stroke="#000000" stroke-miterlimit="10" x1="39.715" y1="120.329" x2="239.099" y2="120.329"/>
		<g>
			<polygon points="43.028,124.418 43.71,123.686 40.099,120.33 43.71,116.972 43.028,116.24 38.63,120.33 			"/>
		</g>
		<g>
			<polygon points="235.785,124.418 235.103,123.686 238.714,120.33 235.103,116.972 235.785,116.24 240.183,120.33 			"/>
		</g>
	</g>
</g>
<line fill="none" stroke="#000000" stroke-miterlimit="10" x1="240.183" y1="112.329" x2="240.183" y2="128.329"/>
<text transform="matrix(1 0 0 1 122.9009 137.6641)"><tspan x="0" y="0" font-family="'Helvetica'" font-size="12">&gt;3 ms</tspan><tspan x="3.167" y="14.4" font-family="'Helvetica'" font-size="12">reset</tspan></text>
</svg>
